<?xml version="1.0"?>
<svg xmlns="http://www.w3.org/2000/svg" viewBox="0 0 64 64" width="512px" height="512px" class=""><g><g id="outline"><path d="M58.5,23A3.5,3.5,0,0,0,55,26.5v9.6a3.466,3.466,0,0,0-5.266,0L45.369,41.2A11.787,11.787,0,0,0,39,51.708V58h2V51.708A9.8,9.8,0,0,1,46.447,42.9a1.015,1.015,0,0,0,.312-.244l4.494-5.243a1.476,1.476,0,0,1,2-.22,1.471,1.471,0,0,1,.21,2.162l-5.216,5.993a1,1,0,0,0,1.506,1.316l7-8A1,1,0,0,0,57,38V26.5a1.5,1.5,0,0,1,3,0V40.279a4.993,4.993,0,0,1-.76,2.65L50.152,57.47l1.7,1.06,9.088-14.541A6.99,6.99,0,0,0,62,40.279V26.5A3.5,3.5,0,0,0,58.5,23Z" data-original="#000000" class="active-path" data-old_color="#ffffff" fill="#ffffff"/><path d="M12.152,58.53l1.7-1.06L4.76,42.929A4.993,4.993,0,0,1,4,40.279V26.5a1.5,1.5,0,0,1,3,0V38a1,1,0,0,0,.248.659l7,8a1,1,0,0,0,1.506-1.316l-5.223-6a1.47,1.47,0,0,1,.217-2.153,1.475,1.475,0,0,1,2,.219l4.494,5.243a1.015,1.015,0,0,0,.312.244A9.8,9.8,0,0,1,23,51.708V58h2V51.708A11.787,11.787,0,0,0,18.631,41.2l-4.365-5.093a3.48,3.48,0,0,0-4.718-.517A3.42,3.42,0,0,0,9,36.1V26.5a3.5,3.5,0,0,0-7,0V40.279a6.99,6.99,0,0,0,1.064,3.71Z" data-original="#000000" class="active-path" data-old_color="#ffffff" fill="#ffffff"/><path d="M16.564,28.932,31.375,40.781a1,1,0,0,0,1.272-.019L47.776,27.9a14.88,14.88,0,0,0,4.152-5.761L50.072,21.4a12.864,12.864,0,0,1-3.591,4.984L31.98,38.7,17.813,27.37a12.883,12.883,0,0,1-3.695-4.778l-1.826.816A14.89,14.89,0,0,0,16.564,28.932Z" data-original="#000000" class="active-path" data-old_color="#ffffff" fill="#ffffff"/><path d="M53,16.606A11.606,11.606,0,0,0,33.187,8.4L32,9.586,30.813,8.4A11.606,11.606,0,0,0,11,16.606v.749A14.852,14.852,0,0,0,11.1,19H2v2H22a1,1,0,0,0,.857-.485l2.131-3.551L31.136,27.5A1,1,0,0,0,32,28h.019a1,1,0,0,0,.863-.529l7.148-13.4,3.1,5.428A1,1,0,0,0,44,20H62V18H52.93C52.974,17.536,53,17.071,53,16.606ZM50.915,18H44.58l-3.712-6.5a.989.989,0,0,0-.883-.5,1,1,0,0,0-.867.529L31.961,24.948,25.864,14.5a1,1,0,0,0-.858-.5H25a1,1,0,0,0-.857.485L21.434,19H13.119A12.947,12.947,0,0,1,13,17.355v-.749A9.607,9.607,0,0,1,29.4,9.813l1.894,1.894a1,1,0,0,0,1.414,0L34.6,9.813A9.607,9.607,0,0,1,51,16.606,12.751,12.751,0,0,1,50.915,18Z" data-original="#000000" class="active-path" data-old_color="#ffffff" fill="#ffffff"/></g></g> </svg>
