<?xml version="1.0"?>
<svg xmlns="http://www.w3.org/2000/svg" id="Layer_1" data-name="Layer 1" viewBox="0 0 512 512" width="512px" height="512px" class=""><g><title class="active-path" style="fill:#FFFFFF" data-old_color="#FBF5F5">Coin,money bag</title><path d="M502,379.3a24.955,24.955,0,0,0-24.926-24.927h-90.4a70.028,70.028,0,0,0-48.981-61c.009-.1.023-.209.026-.316a160.69,160.69,0,0,0-25.751-91.3A156.688,156.688,0,0,0,250.6,146.439c5.927-3.54,8.848-7.7,8.848-12.577V120.6c0-.073-.008-.143-.011-.215,0-.1.011-.2.011-.308,0-5.62-4.335-11.207-32.405-14.727A59.924,59.924,0,0,0,238.9,89.385l17.5-34.241a6,6,0,0,0-8.216-8c-9.086,4.958-20.761-.321-28.955-5.623A57.993,57.993,0,0,0,165.717,36.2c-13.835,5.7-20.7,14.736-23.237,18.822-25.781,11.528-40.324-5.587-40.976-6.38A6,6,0,0,0,91.3,54.709l12.576,30.356a59.735,59.735,0,0,0,14.265,20.678,142.94,142.94,0,0,0-14.075,2.593c-4.674,1.153-15.618,3.854-15.618,11.742,0,.1.007.2.011.308,0,.072-.011.142-.011.215v13.261c0,5.055,3.374,9.181,8.931,12.527-39.658,19.948-69.757,56.662-81.78,100.58-12.956,47.324-3.037,96.8,27.255,135.874a52.951,52.951,0,0,0-7.6,27.443,15.822,15.822,0,0,0,15.822,15.757A52.682,52.682,0,0,0,88.6,410.485l.079-.08a26.293,26.293,0,0,1,18.739-7.775h29.437a24.863,24.863,0,0,0,3.686,33.28,23.929,23.929,0,0,0-8.436,18.237v1.894a24.007,24.007,0,0,0,23.98,23.979h132.25a24.006,24.006,0,0,0,23.979-23.979v-1.894a23.925,23.925,0,0,0-8.406-18.211,24.755,24.755,0,0,0,5.145-6.371c.284.032.569.058.854.086l.023,0c1.131.112,2.267.2,3.41.26.116.006.232.009.348.015,1.117.052,2.238.085,3.365.085a70.3,70.3,0,0,0,7.991-.47,24.769,24.769,0,0,0,4.943,6.187,23.922,23.922,0,0,0-8.2,18.03v1.892a24.007,24.007,0,0,0,23.98,23.98H478.02A24.007,24.007,0,0,0,502,455.653v-1.892a23.926,23.926,0,0,0-8.212-18.044,24.883,24.883,0,0,0-.571-37.445A24.875,24.875,0,0,0,502,379.3Zm-12,0a12.941,12.941,0,0,1-12.926,12.926H379.093a69.312,69.312,0,0,0,7.542-25.853h90.439A12.941,12.941,0,0,1,490,379.3ZM212.71,51.6c9.719,6.287,18.89,9.484,27.149,9.537L228.212,83.924a47.582,47.582,0,0,1-19.824,20.3,6.013,6.013,0,0,0-.944.5,47.483,47.483,0,0,1-14.345,4.624l9.422-49.495a6,6,0,0,0-2.151-5.811c-.6-.476-10.652-8.246-28.287-7.42A46.094,46.094,0,0,1,212.71,51.6ZM114.959,80.472,109.919,68.3c10.069,3.64,23.366,4.351,38.784-2.939a5.962,5.962,0,0,0,1.085-.5c20.737-9.923,34.486-5.875,40.163-3.15l-9.175,48.2H159.024a47.7,47.7,0,0,1-21.388-5.044,5.979,5.979,0,0,0-.867-.44A47.591,47.591,0,0,1,114.959,80.472Zm18.324,35.64a59.729,59.729,0,0,0,25.741,5.8h26.717a59.731,59.731,0,0,0,26.219-6.026c14.5,1.175,23.8,2.8,29.388,4.2-10.869,2.683-33.534,5.611-67.4,5.611-33.924,0-56.61-2.938-67.457-5.625C111.8,118.746,120.365,117.258,133.283,116.112Zm-16.42,18.123c15.294,2.236,35.568,3.468,57.085,3.468s41.791-1.232,57.085-3.468a113.161,113.161,0,0,0,16.418-3.392v2.805c-.321.512-2.624,3.527-13.683,6.85h0c-.047.014-.095.025-.141.04-14.641,4.373-36.376,6.882-59.675,6.882-19.4,0-37.931-1.755-52.172-4.942-15.542-3.479-20.644-7.526-21.331-8.814v-2.822A113.19,113.19,0,0,0,116.863,134.235Zm-36.686,267.7-.077.077a40.756,40.756,0,0,1-29.029,12.028,3.761,3.761,0,0,1-3.821-3.773,40.942,40.942,0,0,1,6.056-21.523A11.39,11.39,0,0,0,52.57,375.8c-28.132-36.062-37.389-81.862-25.4-125.658,12.116-44.255,44.038-80.576,85.586-97.56,18.319,5.127,43.26,6.844,61.192,6.844a293.662,293.662,0,0,0,40.337-2.65,102.415,102.415,0,0,0-14,34.218,6,6,0,1,0,11.741,2.48,90.586,90.586,0,0,1,15.544-34.888l2.135,3.1.123.208a187.677,187.677,0,0,1,21.144,53.9,6,6,0,0,0,11.7-2.662,199.643,199.643,0,0,0-22.51-57.334l-.236-.4c-.07-.12-.145-.238-.224-.352l-.507-.735a144.454,144.454,0,0,1,62.691,53.973,148.714,148.714,0,0,1,23.851,82.546,67.787,67.787,0,0,0-16.9-.062,24.851,24.851,0,0,0-4.961-6.012,23.927,23.927,0,0,0,8.429-18.232v-1.892a24.006,24.006,0,0,0-23.979-23.98H156.085a24.007,24.007,0,0,0-23.98,23.98v1.892a23.929,23.929,0,0,0,8.436,18.237,24.877,24.877,0,0,0,.347,37.639,24.878,24.878,0,0,0,0,37.94,24.863,24.863,0,0,0-6.049,30.3H107.418A38.213,38.213,0,0,0,80.177,401.938Zm174.782-9.71H157.031a12.829,12.829,0,0,1-5.851-1.415v-.183h-.364a12.923,12.923,0,0,1,6.215-24.255h90.427c.015.17.034.339.051.509.022.237.045.475.07.711A68.979,68.979,0,0,0,254.959,392.228Zm-7.519-37.94H157.031a12.926,12.926,0,0,1,0-25.852h97.783A69.326,69.326,0,0,0,247.44,354.288Zm15.216-37.94H157.031a12.926,12.926,0,1,1,0-25.852H287.388a12.925,12.925,0,0,1,8.389,3.089A70.105,70.105,0,0,0,262.656,316.348ZM156.085,278.5a11.993,11.993,0,0,1-11.98-11.98v-1.892a11.993,11.993,0,0,1,11.98-11.98h132.25a11.993,11.993,0,0,1,11.979,11.98v1.892a11.993,11.993,0,0,1-11.979,11.98H156.085Zm132.25,163.672a11.993,11.993,0,0,1,11.979,11.979v1.894a11.993,11.993,0,0,1-11.979,11.979H156.085a11.993,11.993,0,0,1-11.98-11.979v-1.894a11.993,11.993,0,0,1,11.98-11.979h132.25Zm-.947-12H157.031a12.927,12.927,0,0,1,0-25.853H262.918a69.257,69.257,0,0,0,33.146,22.522A12.887,12.887,0,0,1,287.388,430.168Zm26.478-12.246c-.47-.025-.934-.07-1.4-.106-.555-.043-1.109-.086-1.661-.144-.64-.07-1.276-.154-1.91-.244-.331-.046-.661-.092-.99-.144-.789-.126-1.574-.264-2.352-.421l-.3-.062a58,58,0,0,1-45.742-50.492q-.032-.288-.058-.578c-.069-.713-.121-1.43-.164-2.149-.014-.235-.031-.468-.042-.7-.042-.909-.069-1.822-.069-2.741a57.876,57.876,0,1,1,57.876,57.876C315.985,418.014,314.923,417.979,313.866,417.922ZM490,453.761v1.892a11.993,11.993,0,0,1-11.98,11.98H345.771a11.993,11.993,0,0,1-11.98-11.98v-1.892a11.991,11.991,0,0,1,9.925-11.791,25.234,25.234,0,0,0,3,.2H477.074a25.01,25.01,0,0,0,3.04-.192A11.99,11.99,0,0,1,490,453.761Zm-11.98-23.98H345.771c-.622,0-1.237.031-1.847.078a12.851,12.851,0,0,1-5.918-3.059,70.089,70.089,0,0,0,33.139-22.485H477.074a12.923,12.923,0,0,1,2.783,25.543C479.25,429.812,478.639,429.781,478.02,429.781Z" data-original="#000000" class="active-path" data-old_color="#FBF5F5" fill="#ffffff"/><path d="M337.208,335.957h.066a6,6,0,0,0,.063-12l-30.094-.323-12.063-.13a6,6,0,1,0-.129,12l12.063.13h0a12.007,12.007,0,0,1,8.51,3.632,12.165,12.165,0,0,1,1.911,2.569l-22.549-.242h-.066a6,6,0,0,0-.063,12l22.541.242a12.087,12.087,0,0,1-10.543,5.976l-12.063-.129A6,6,0,0,0,290.56,370L320.4,398.812a6,6,0,1,0,8.335-8.633l-19.167-18.506a24.137,24.137,0,0,0,20.656-17.7l6.785.072h.066a6,6,0,0,0,.063-12l-6.758-.072a23.805,23.805,0,0,0-2.431-6.116Z" data-original="#000000" class="active-path" data-old_color="#FBF5F5" fill="#ffffff"/></g> </svg>
