<?xml version="1.0"?>
<svg xmlns="http://www.w3.org/2000/svg" height="512px" viewBox="-43 0 499 499.325" width="512px" class=""><g><path d="m206.25 240.175781c-27.566406.03125-49.90625 22.371094-49.9375 49.9375v21.96875c0 27.578125 22.359375 49.9375 49.9375 49.9375s49.9375-22.359375 49.9375-49.9375v-21.96875c-.03125-27.566406-22.371094-49.90625-49.9375-49.9375zm37.9375 71.90625c0 20.949219-16.984375 37.9375-37.9375 37.9375s-37.9375-16.988281-37.9375-37.9375v-21.96875c0-20.953125 16.984375-37.9375 37.9375-37.9375s37.9375 16.984375 37.9375 37.9375zm0 0" data-original="#000000" class="active-path" data-old_color="#ffffff" fill="#ffffff"/><path d="m334.761719 268.253906c-24.542969.027344-44.429688 19.917969-44.457031 44.460938v19.226562c-.074219 15.933594 8.382812 30.691406 22.167968 38.679688 13.785156 7.988281 30.792969 7.988281 44.582032 0 13.785156-7.988282 22.242187-22.746094 22.167968-38.679688v-19.230468c-.03125-24.539063-19.917968-44.429688-44.460937-44.457032zm32.460937 63.6875c.0625 11.640625-6.109375 22.421875-16.179687 28.261719-10.066407 5.835937-22.492188 5.835937-32.5625 0-10.066407-5.839844-16.242188-16.621094-16.175781-28.261719v-19.230468c-.066407-11.636719 6.109374-22.421876 16.175781-28.257813 10.070312-5.839844 22.496093-5.839844 32.5625 0 10.070312 5.835937 16.242187 16.621094 16.179687 28.257813zm0 0" data-original="#000000" class="active-path" data-old_color="#ffffff" fill="#ffffff"/><path d="m365.851562 378.898438c-3.117187-.152344-4.660156 1.738281-6.160156 3.566406-6.105468 7.464844-15.316406 11.691406-24.953125 11.453125-9.640625-.234375-18.632812-4.90625-24.367187-12.65625-1.167969-1.566407-3.019532-2.472657-4.972656-2.433594-8.738282.191406-17.265626 2.730469-24.683594 7.347656-9.75-11.585937-23.828125-18.667969-38.941406-19.589843-3.164063-.191407-4.722657 1.730468-6.386719 3.757812-6.925781 8.507812-17.324219 13.433594-28.296875 13.410156-.316406 0-.636719-.003906-.953125-.015625-11.265625-.25-21.777344-5.71875-28.445313-14.804687-1.15625-1.582032-3.015625-2.492188-4.976562-2.433594-14.445313.335938-28.179688 6.328125-38.253906 16.6875-.960938.988281-1.871094 2.011719-2.753907 3.058594-6.953125-4.335938-14.882812-6.859375-23.066406-7.347656-3.097656-.152344-4.65625 1.738281-6.15625 3.566406-6.105469 7.464844-15.3125 11.691406-24.953125 11.453125-9.640625-.234375-18.628906-4.90625-24.363281-12.65625-1.171875-1.566407-3.023438-2.472657-4.976563-2.433594-26.71875.679687-48.023437 22.53125-48.027344 49.257813v43.269531c0 3.3125 2.683594 6 6 6h112.519532v15.96875c0 3.316406 2.683594 6 6 6h163.132812c3.316406 0 6-2.683594 6-6v-15.96875h112.347656c3.3125 0 6-2.6875 6-6v-43.269531c-.035156-26.050782-20.308593-47.585938-46.3125-49.1875zm-247.167968 43.023437v43.433594h-106.519532v-37.269531c.117188-19.058594 14.5-35 33.445313-37.078126 8.191406 9.449219 20.074219 14.890626 32.578125 14.921876 12.507812.027343 24.414062-5.355469 32.652344-14.765626 5.011718.699219 9.824218 2.417969 14.144531 5.046876-4.15625 7.929687-6.320313 16.753906-6.300781 25.710937zm163.132812 65.398437h-151.132812v-65.398437c.003906-22.429687 17.085937-41.171875 39.417968-43.253906 9.203126 10.808593 22.675782 17.050781 36.875 17.082031 14.195313.035156 27.699219-6.148438 36.949219-16.914062 21.65625 2.8125 37.871094 21.246093 37.890625 43.085937zm118.347656-21.964843h-106.347656v-43.433594c.007813-8.984375-2.183594-17.835937-6.378906-25.78125 4.675781-2.835937 9.929688-4.589844 15.371094-5.132813 7.9375 9.21875 19.410156 14.636719 31.574218 14.90625.375.011719.75.011719 1.125.011719 12.476563.03125 24.347657-5.355469 32.539063-14.761719 18.40625 2.59375 32.097656 18.335938 32.117187 36.921876zm0 0" data-original="#000000" class="active-path" data-old_color="#ffffff" fill="#ffffff"/><path d="m77.5625 268.253906c-24.542969.027344-44.429688 19.917969-44.460938 44.460938v19.226562c-.074218 15.933594 8.382813 30.691406 22.171876 38.679688 13.785156 7.988281 30.792968 7.988281 44.578124 0 13.789063-7.988282 22.246094-22.746094 22.167969-38.679688v-19.230468c-.027343-24.539063-19.914062-44.429688-44.457031-44.457032zm32.457031 63.6875c.066407 11.640625-6.105469 22.421875-16.175781 28.261719-10.070312 5.835937-22.492188 5.835937-32.5625 0-10.070312-5.839844-16.242188-16.621094-16.179688-28.261719v-19.230468c-.0625-11.636719 6.109376-22.421876 16.179688-28.257813 10.070312-5.839844 22.492188-5.839844 32.5625 0 10.070312 5.835937 16.242188 16.621094 16.175781 28.257813zm0 0" data-original="#000000" class="active-path" data-old_color="#ffffff" fill="#ffffff"/><path d="m394.019531 199.042969c2.992188-.386719 5.230469-2.933594 5.230469-5.949219v-.246094c-.066406-106.367187-86.617188-192.847656-192.96875-192.847656h-.363281c-106.402344.0703125-192.914063 86.691406-192.84375 193.101562.003906 3.011719 2.242187 5.550782 5.230469 5.9375 2.988281.386719 5.796874-1.503906 6.570312-4.414062 1.328125-5.050781 6.054688-19.472656 11.960938-25.875 7.800781-7.519531 18.203124-11.730469 29.035156-11.753906h.203125c10.746093-.023438 21.070312 4.183594 28.742187 11.710937 7.539063 7.800781 11.769532 18.214844 11.800782 29.0625 0 3.3125 2.683593 6 6 6 3.3125 0 6-2.6875 6-6-.167969-10.867187 4.078124-21.339843 11.765624-29.023437s18.164063-11.921875 29.03125-11.75h.203126c10.746093-.027344 21.074218 4.179687 28.746093 11.707031 7.539063 7.800781 11.769531 18.214844 11.800781 29.0625v27.855469c0 3.316406 2.683594 6 6 6 3.3125 0 6-2.683594 6-6v-27.855469c-.167968-10.867187 4.078126-21.339844 11.765626-29.023437 7.691406-7.683594 18.164062-11.917969 29.03125-11.746094h.203124c10.746094-.023438 21.070313 4.183594 28.738282 11.714844 7.542968 7.796874 11.769531 18.210937 11.800781 29.058593 0 3.316407 2.6875 6 6 6s6-2.683593 6-6c-.167969-10.867187 4.078125-21.339843 11.765625-29.023437 7.691406-7.683594 18.164062-11.921875 29.035156-11.746094h.199219c10.746094-.027344 21.066406 4.179688 28.734375 11.707031 5.90625 6.355469 10.664062 20.847657 12 25.914063.769531 2.921875 3.589844 4.8125 6.582031 4.421875zm-9.910156-38.644531c-.054687-.058594-.109375-.113282-.164063-.167969-9.90625-9.785157-23.277343-15.261719-37.203124-15.234375h-.257813c-13.953125.011718-27.351563 5.441406-37.375 15.144531-.085937.082031-.171875.167969-.253906.253906-3.621094 3.820313-6.699219 8.121094-9.144531 12.777344-2.449219-4.65625-5.523438-8.957031-9.144532-12.777344-.050781-.054687-.105468-.113281-.164062-.167969-9.90625-9.785156-23.277344-15.257812-37.203125-15.230468h-.261719c-13.949219.007812-27.351562 5.441406-37.375 15.144531-.085938.082031-.171875.167969-.253906.253906-3.621094 3.820313-6.699219 8.117188-9.144532 12.777344-2.449218-4.660156-5.527343-8.960937-9.144531-12.777344-.054687-.058593-.109375-.113281-.164062-.167969-9.910157-9.789062-23.28125-15.261718-37.207031-15.234374h-.257813c-13.949219.011718-27.351563 5.441406-37.375 15.144531-.085937.082031-.171875.167969-.253906.253906-3.621094 3.820313-6.695313 8.121094-9.144531 12.777344-2.445313-4.65625-5.523438-8.957031-9.144532-12.777344-.050781-.054687-.105468-.113281-.164062-.167969-9.90625-9.785156-23.28125-15.261718-37.207032-15.230468h-.253906c-13.949218.007812-27.351562 5.4375-37.375 15.140624-.085937.085938-.171875.171876-.257812.257813-.082032.09375-.167969.183594-.253906.277344 15.261718-84.382813 89.238281-148.613281 177.960937-148.667969h.242187.117188c88.75 0 162.808594 64.238281 178.085938 148.675781zm0 0" data-original="#000000" class="active-path" data-old_color="#ffffff" fill="#ffffff"/></g> </svg>
