<?xml version="1.0" encoding="utf-8"?>
<!-- Generator: Adobe Illustrator 16.0.0, SVG Export Plug-In . SVG Version: 6.00 Build 0)  -->
<!DOCTYPE svg PUBLIC "-//W3C//DTD SVG 1.1//EN" "http://www.w3.org/Graphics/SVG/1.1/DTD/svg11.dtd">
<svg version="1.1" id="Layer_1" xmlns="http://www.w3.org/2000/svg" xmlns:xlink="http://www.w3.org/1999/xlink" x="0px" y="0px"
	 width="960px" height="387.5px" viewBox="0 0 960 387.5" enable-background="new 0 0 960 387.5" xml:space="preserve">
<pattern  x="430.5" y="330.5" width="144.13" height="138.362" patternUnits="userSpaceOnUse" id="Alyssa" viewBox="99.963 -203.087 144.13 138.362" overflow="visible">
	<g>
		<polygon fill="none" points="99.963,-64.725 244.093,-64.725 244.093,-203.087 99.963,-203.087 		"/>
		<g>
			<polygon fill="none" points="99.963,-64.725 244.093,-64.725 244.093,-203.088 99.963,-203.088 			"/>
			<g>
				<path fill="#C6DD7F" d="M311.037-223.247c-11.76,1.384-19.369-0.346-22.654-3.113c-3.02-2.543-4.955-5.405-2.248-11.932
					c2.939-7.091,1.533-14.732-5.535-15.91c-6.225-1.037-10.895,4.842-11.24,12.278c-0.24,5.183-1.902,8.301-5.533,7.608
					c-3.633-0.691-4.629-5.9-3.633-11.759c1.385-8.128,5.535-11.76,6.227-20.233c0.494-6.055-2.939-13.662-12.451-15.045
					c-9.301-1.354-15.91,4.322-16.602,10.549c-0.732,6.588,3.631,10.895,3.111,17.639c-0.518,6.745-4.012,10.172-5.879,17.294
					c-2.768,10.549,1.211,19.022,7.781,22.654c14.746,8.148,22.832-3.642,35.971-1.556c10.896,1.729,23.348,18.157,33.031,19.541
					c8.228,1.175,13.834-4.669,15.045-14.008C327.638-218.578,321.688-224.5,311.037-223.247z M268.841-223.765
					c0,2.292-1.859,4.15-4.15,4.15c-2.293,0-4.15-1.858-4.15-4.15s1.857-4.15,4.15-4.15
					C266.982-227.916,268.841-226.057,268.841-223.765z M318.3-208.375c0,0.955-0.774,1.729-1.729,1.729s-1.729-0.774-1.729-1.729
					c0-0.955,0.773-1.729,1.729-1.729S318.3-209.33,318.3-208.375z"/>
			</g>
			<g>
				<path fill="#E9DDB7" d="M148.795-204.059c0-7.166,4.588-13.813-1-16.333c-8.5-3.833-27.999,14.333-27.999,36.167
					c0,12,8.667,19,17.833,19c12.334,0,18-8.167,18-17.5C155.629-192.057,148.795-195.865,148.795-204.059z M143.387-198.689
					c0,1.146-0.93,2.075-2.074,2.075c-1.146,0-2.076-0.929-2.076-2.075c0-1.146,0.93-2.075,2.076-2.075
					C142.457-200.765,143.387-199.836,143.387-198.689z"/>
				<path fill="#A6D0E4" d="M223.495-227.554c-7.871-2.737-19.439,15.297-17.67,27.018c1.24,8.228,7.123,13.19,13.088,14.217
					c7.525,1.297,12.898-2.601,13.299-7.243c0.547-6.309-3.633-7.518-4.223-14.958C227.426-215.654,231.68-224.705,223.495-227.554z
					 M219.706-200.046c0,1.434-1.162,2.595-2.594,2.595c-1.434,0-2.594-1.161-2.594-2.595c0-1.433,1.16-2.594,2.594-2.594
					C218.543-202.639,219.706-201.478,219.706-200.046z"/>
				<path fill="#E9DDB7" d="M119.351-205.089c0-1.433-1.162-2.594-2.594-2.594c-1.434,0-2.594,1.161-2.594,2.594
					c0,1.433,1.16,2.594,2.594,2.594C118.188-202.495,119.351-203.656,119.351-205.089z"/>
				<path fill="#A6D0E4" d="M184.573-197.365c0.74-8.101,12.672-7.017,17.904-14.214c10.52-14.475-1.219-46.365-21.631-46.365
					c-11.74,0-24.217,9.719-24.217,29.219c0,15.834,10.166,21.5,8.25,42.166c-1.006,10.834-12.5,20.343-12.5,34.75
					c0,5.922,3.586,13.447,11.553,13.447c7.055,0,10.822-5.953,10.822-12.9c0-6.798-5.381-15.74,1.375-19.047
					c5.242-2.565,13.211,4.77,19.5,6.75c5.191,1.636,12.389-0.225,14.75-8.5c2.531-8.876-3.252-14.745-11.592-16.693
					C192.469-190.229,183.985-190.924,184.573-197.365z M168.588-166.806c0,1.815-1.471,3.287-3.285,3.287
					c-1.814,0-3.287-1.472-3.287-3.287c0-1.814,1.473-3.285,3.287-3.285C167.118-170.092,168.588-168.621,168.588-166.806z
					 M194.573-176.502c1.285,0,2.328,1.043,2.328,2.33c0,1.286-1.043,2.328-2.328,2.328c-1.287,0-2.33-1.042-2.33-2.328
					C192.243-175.459,193.286-176.502,194.573-176.502z M174.588-236.174c0,1.815-1.471,3.287-3.287,3.287
					c-1.814,0-3.285-1.472-3.285-3.287s1.471-3.285,3.285-3.285C173.118-239.458,174.588-237.988,174.588-236.174z"/>
				<path fill="#C6DD7F" d="M166.907-223.247c-11.76,1.384-19.369-0.346-22.654-3.113c-3.02-2.543-4.955-5.405-2.248-11.932
					c2.939-7.091,1.533-14.732-5.535-15.91c-6.225-1.037-10.894,4.842-11.24,12.278c-0.24,5.183-1.902,8.301-5.533,7.608
					c-3.633-0.691-4.629-5.9-3.633-11.759c1.385-8.128,5.535-11.76,6.227-20.233c0.494-6.055-2.939-13.662-12.451-15.045
					c-9.301-1.354-15.91,4.322-16.602,10.549c-0.732,6.588,3.631,10.895,3.111,17.639c-0.518,6.745-4.012,10.172-5.879,17.294
					c-2.768,10.549,1.211,19.022,7.781,22.654c14.746,8.148,22.832-3.642,35.97-1.556c10.896,1.729,23.348,18.157,33.031,19.541
					c8.227,1.175,13.834-4.669,15.045-14.008C183.508-218.578,177.557-224.5,166.907-223.247z M124.711-223.765
					c0,2.292-1.859,4.15-4.15,4.15c-2.293,0-4.15-1.858-4.15-4.15s1.858-4.15,4.15-4.15
					C122.852-227.916,124.711-226.057,124.711-223.765z M174.17-208.375c0,0.955-0.775,1.729-1.73,1.729s-1.729-0.774-1.729-1.729
					c0-0.955,0.773-1.729,1.729-1.729C173.395-210.104,174.17-209.33,174.17-208.375z"/>
			</g>
			<g>
				<path fill="#A6D0E4" d="M290.285-176.713c0-6.227-4.15-10.721-8.647-11.586c-4.496-0.865-8.318,1.281-12.971-1.211
					c-4.842-2.594-7.09-11.068-16.775-11.068c-7.955,0-15.217,7.955-15.217,18.85c0,20.234,13.143,29.227,25.594,29.227
					C278.871-152.502,290.285-165.127,290.285-176.713z M270.57-162.359c0,2.1-1.703,3.803-3.805,3.803s-3.805-1.703-3.805-3.803
					c0-2.101,1.703-3.805,3.805-3.805S270.57-164.461,270.57-162.359z"/>
				<path fill="#C6DD7F" d="M311.037-84.885c-11.76,1.384-19.369-0.346-22.654-3.113c-3.02-2.543-4.955-5.405-2.248-11.932
					c2.939-7.091,1.533-14.732-5.535-15.91c-6.225-1.037-10.895,4.842-11.24,12.278c-0.24,5.183-1.902,8.301-5.533,7.608
					c-3.633-0.691-4.629-5.9-3.633-11.759c1.385-8.128,5.535-11.76,6.227-20.233c0.494-6.055-2.939-13.662-12.451-15.045
					c-9.301-1.354-15.91,4.322-16.602,10.549c-0.732,6.588,3.631,10.895,3.111,17.639c-0.518,6.745-4.012,10.172-5.879,17.294
					c-2.768,10.549,1.211,19.023,7.781,22.654c14.746,8.148,22.832-3.642,35.971-1.556c10.896,1.729,23.348,18.157,33.031,19.541
					c8.228,1.175,13.834-4.669,15.045-14.008C327.638-80.216,321.688-86.139,311.037-84.885z M268.841-85.403
					c0,2.292-1.859,4.15-4.15,4.15c-2.293,0-4.15-1.858-4.15-4.15s1.857-4.15,4.15-4.15
					C266.982-89.554,268.841-87.695,268.841-85.403z M318.3-70.013c0,0.955-0.774,1.73-1.729,1.73s-1.729-0.774-1.729-1.73
					c0-0.955,0.773-1.729,1.729-1.729S318.3-70.968,318.3-70.013z"/>
			</g>
			<g>
				<path fill="#A6D0E4" d="M131.795-148.363c-13.956-1.988-21.165,13.332-17.665,20.332c3.666,7.334,12.119,4.168,19.499,4.168
					c9.666,0,16.367,7.568,20.416,2.25C158.295-127.197,149.036-145.908,131.795-148.363z M132.319-130.885
					c0,1.24-1.006,2.248-2.248,2.248c-1.24,0-2.248-1.008-2.248-2.248c0-1.242,1.008-2.248,2.248-2.248
					C131.313-133.133,132.319-132.127,132.319-130.885z"/>
				<path fill="#E9DDB7" d="M148.795-65.697c0-7.166,4.588-13.813-1-16.333c-8.5-3.833-27.999,14.333-27.999,36.167
					c0,12,8.667,19,17.833,19c12.334,0,18-8.166,18-17.5C155.629-53.695,148.795-57.503,148.795-65.697z M143.387-60.328
					c0,1.146-0.93,2.075-2.074,2.075c-1.146,0-2.076-0.929-2.076-2.075c0-1.145,0.93-2.075,2.076-2.075
					C142.457-62.403,143.387-61.473,143.387-60.328z"/>
				<path fill="#A6D0E4" d="M146.155-176.713c0-6.227-4.15-10.721-8.646-11.586c-4.496-0.865-8.318,1.281-12.971-1.211
					c-4.841-2.594-7.089-11.068-16.775-11.068c-7.955,0-15.217,7.955-15.217,18.85c0,20.234,13.143,29.227,25.594,29.227
					C134.741-152.502,146.155-165.127,146.155-176.713z M126.44-162.359c0,2.1-1.703,3.803-3.804,3.803
					c-2.102,0-3.805-1.703-3.805-3.803c0-2.101,1.703-3.805,3.805-3.805C124.737-166.164,126.44-164.461,126.44-162.359z"/>
				<path fill="#C6DD7F" d="M145.463-153.021c0-1.336-1.084-2.42-2.422-2.42c-1.336,0-2.42,1.084-2.42,2.42
					c0,1.338,1.084,2.422,2.42,2.422C144.379-150.599,145.463-151.683,145.463-153.021z"/>
				<path fill="#A6D0E4" d="M229.163-134.517c-3.191-4.68,1.039-10.721-1.383-15.217c-2.422-4.498-6.744-5.016-9.857-2.596
					c-3.635,2.828-3.41,6.643-8.301,8.82c-5.529,2.465-17.984-2.248-19.715,7.264c-0.875,4.811,2.375,8.566,7.264,9.684
					c6.053,1.383,9.352,0.18,15.391,3.113c6.053,2.939,11.242,8.993,22.137,12.105c10.406,2.975,16.072-1.557,16.602-5.879
					C252.336-125.697,234.172-127.172,229.163-134.517z M226.915-127.08c0,1.24-1.006,2.248-2.248,2.248
					c-1.24,0-2.248-1.008-2.248-2.248c0-1.242,1.008-2.248,2.248-2.248C225.909-129.328,226.915-128.322,226.915-127.08z"/>
				<path fill="#E9DDB7" d="M256.129-173.697c0-17.166-14.5-25.5-27-22.832c-10.264,2.189-12.834,17.332-16.668,26.166
					c-3.713,8.557-8.832,22.5-20.166,22.5c-11.197,0-12.832-14.5-23.666-14.5c-11,0-24.5,15.666-24.5,39.666
					c0,14.667,9.799,31.455,20.834,30.667c11.666-0.833,4.5-19.667,15.332-19.667c9.5,0,7.857,16.259,9.168,23.334
					c1.666,9,6.832,14.166,18.498,13.166c14.443-1.237,22.334-13.5,18.871-23.344c-4.029-11.451-23.869-17.322-21.537-30.49
					c1.346-7.592,13-11.998,26-16.166C245.825-149.853,256.129-156.529,256.129-173.697z M211.178-97.854
					c0-1.815,1.471-3.286,3.285-3.286s3.287,1.471,3.287,3.286c0,1.815-1.473,3.286-3.287,3.286S211.178-96.039,211.178-97.854z
					 M164.485-122.758c0,0.955-0.773,1.73-1.729,1.73c-0.955,0-1.73-0.775-1.73-1.73s0.775-1.729,1.73-1.729
					C163.711-124.486,164.485-123.713,164.485-122.758z M181.952-133.478c0,2.102-1.703,3.805-3.805,3.805
					c-2.1,0-3.805-1.703-3.805-3.805c0-2.102,1.705-3.805,3.805-3.805C180.248-137.283,181.952-135.58,181.952-133.478z
					 M201.84-117.915c0,0.859-0.697,1.556-1.557,1.556c-0.859,0-1.557-0.696-1.557-1.556c0-0.859,0.697-1.556,1.557-1.556
					C201.143-119.471,201.84-118.773,201.84-117.915z M231.483-172.609c0,1.752-1.42,3.174-3.174,3.174
					c-1.752,0-3.174-1.422-3.174-3.174c0-1.754,1.422-3.174,3.174-3.174C230.063-175.783,231.483-174.363,231.483-172.609z"/>
				<path fill="#A6D0E4" d="M223.495-89.19c-7.871-2.737-19.439,15.297-17.67,27.019c1.24,8.228,7.123,13.189,13.088,14.217
					c7.525,1.297,12.898-2.601,13.299-7.243c0.547-6.309-3.633-7.518-4.223-14.958C227.426-77.292,231.68-86.343,223.495-89.19z
					 M219.706-61.683c0,1.434-1.162,2.595-2.594,2.595c-1.434,0-2.594-1.161-2.594-2.595c0-1.433,1.16-2.594,2.594-2.594
					C218.543-64.277,219.706-63.116,219.706-61.683z"/>
				<path fill="#E9DDB7" d="M119.351-66.726c0-1.433-1.162-2.594-2.594-2.594c-1.434,0-2.594,1.161-2.594,2.594
					c0,1.433,1.16,2.594,2.594,2.594C118.188-64.133,119.351-65.294,119.351-66.726z"/>
				<path fill="#E9DDB7" d="M253.348-153.463c0,8.41-5.078,15.227-11.34,15.227c-6.262,0-11.34-6.816-11.34-15.227
					c0-8.408,5.078-12.441,11.34-12.441C248.27-165.904,253.348-161.871,253.348-153.463z"/>
				<path fill="#A6D0E4" d="M184.573-59.003c0.74-8.101,12.672-7.017,17.904-14.214c10.52-14.475-1.219-46.365-21.631-46.365
					c-11.74,0-24.217,9.719-24.217,29.219c0,15.834,10.166,21.5,8.25,42.166c-1.006,10.834-12.5,20.344-12.5,34.75
					C152.379-7.525,155.965,0,163.932,0c7.055,0,10.822-5.953,10.822-12.9c0-6.797-5.381-15.739,1.375-19.047
					c5.242-2.564,13.211,4.771,19.5,6.75c5.191,1.637,12.389-0.225,14.75-8.5c2.531-8.875-3.252-14.744-11.592-16.692
					C192.469-51.867,183.985-52.561,184.573-59.003z M168.588-28.443c0,1.814-1.471,3.287-3.285,3.287
					c-1.814,0-3.287-1.473-3.287-3.287s1.473-3.285,3.287-3.285C167.118-31.729,168.588-30.259,168.588-28.443z M194.573-38.139
					c1.285,0,2.328,1.043,2.328,2.33c0,1.286-1.043,2.328-2.328,2.328c-1.287,0-2.33-1.042-2.33-2.328
					C192.243-37.097,193.286-38.139,194.573-38.139z M174.588-97.811c0,1.815-1.471,3.287-3.287,3.287
					c-1.814,0-3.285-1.472-3.285-3.287c0-1.814,1.471-3.285,3.285-3.285C173.118-101.097,174.588-99.626,174.588-97.811z"/>
				<path fill="#C6DD7F" d="M166.907-84.885c-11.76,1.384-19.369-0.346-22.654-3.113c-3.02-2.543-4.955-5.405-2.248-11.932
					c2.939-7.091,1.533-14.732-5.535-15.91c-6.225-1.037-10.894,4.842-11.24,12.278c-0.24,5.183-1.902,8.301-5.533,7.608
					c-3.633-0.691-4.629-5.9-3.633-11.759c1.385-8.128,5.535-11.76,6.227-20.233c0.494-6.055-2.939-13.662-12.451-15.045
					c-9.301-1.354-15.91,4.322-16.602,10.549c-0.732,6.588,3.631,10.895,3.111,17.639c-0.518,6.745-4.012,10.172-5.879,17.294
					c-2.768,10.549,1.211,19.023,7.781,22.654c14.746,8.148,22.832-3.642,35.97-1.556c10.896,1.729,23.348,18.157,33.031,19.541
					c8.227,1.175,13.834-4.669,15.045-14.008C183.508-80.216,177.557-86.139,166.907-84.885z M124.711-85.403
					c0,2.292-1.859,4.15-4.15,4.15c-2.293,0-4.15-1.858-4.15-4.15s1.858-4.15,4.15-4.15
					C122.852-89.554,124.711-87.695,124.711-85.403z M174.17-70.013c0,0.955-0.775,1.73-1.73,1.73s-1.729-0.774-1.729-1.73
					c0-0.955,0.773-1.729,1.729-1.729C173.395-71.742,174.17-70.968,174.17-70.013z"/>
				<path fill="#C6DD7F" d="M230.202-107.193c0-0.764-0.619-1.384-1.385-1.384c-0.764,0-1.383,0.62-1.383,1.384
					c0,0.764,0.619,1.384,1.383,1.384C229.582-105.809,230.202-106.43,230.202-107.193z"/>
				<path fill="#E9DDB7" d="M235.735-68.802c0-1.242-1.006-2.249-2.248-2.249c-1.242,0-2.25,1.007-2.25,2.249
					s1.008,2.249,2.25,2.249C234.729-66.553,235.735-67.559,235.735-68.802z"/>
				<path fill="#A6D0E4" d="M152.207-91.974c0-0.668-0.543-1.211-1.211-1.211s-1.211,0.543-1.211,1.211s0.543,1.211,1.211,1.211
					S152.207-91.306,152.207-91.974z"/>
				<path fill="#A6D0E4" d="M148.575-160.457c0-0.764-0.619-1.385-1.383-1.385c-0.764,0-1.383,0.621-1.383,1.385
					c0,0.764,0.619,1.383,1.383,1.383C147.956-159.074,148.575-159.693,148.575-160.457z"/>
				<path fill="#E9DDB7" d="M233.141-138.494c0-0.668-0.543-1.211-1.211-1.211s-1.209,0.543-1.209,1.211s0.541,1.209,1.209,1.209
					S233.141-137.826,233.141-138.494z"/>
				<path fill="#C6DD7F" d="M195.852-156.42c0-1.881-1.527-3.408-3.408-3.408c-1.883,0-3.408,1.527-3.408,3.408
					c0,1.883,1.525,3.408,3.408,3.408C194.325-153.012,195.852-154.537,195.852-156.42z"/>
				<path fill="#E9DDB7" d="M200.832-196.271c0-1.158-0.939-2.096-2.098-2.096c-1.159,0-2.096,0.938-2.096,2.096
					c0,1.158,0.938,2.098,2.096,2.098C199.892-194.173,200.832-195.113,200.832-196.271z"/>
				<path fill="#E9DDB7" d="M162.03-189.978c0-0.869-0.703-1.572-1.572-1.572s-1.574,0.703-1.574,1.572
					c0,0.869,0.705,1.574,1.574,1.574S162.03-189.109,162.03-189.978z"/>
				<path fill="#C6DD7F" d="M235.702-75.931c0-1.447-1.174-2.621-2.621-2.621c-1.447,0-2.621,1.174-2.621,2.621
					c0,1.447,1.174,2.621,2.621,2.621C234.528-73.309,235.702-74.483,235.702-75.931z"/>
				<path fill="#A6D0E4" d="M225.477-110.8c0-1.303-1.057-2.359-2.359-2.359c-1.303,0-2.359,1.057-2.359,2.359
					c0,1.302,1.057,2.359,2.359,2.359C224.42-108.439,225.477-109.497,225.477-110.8z"/>
				<path fill="#E9DDB7" d="M127.686-117.354c0-1.448-1.174-2.622-2.623-2.622c-1.447,0-2.621,1.174-2.621,2.622
					c0,1.448,1.174,2.622,2.621,2.622C126.512-114.731,127.686-115.906,127.686-117.354z"/>
				<path fill="#A6D0E4" d="M122.704-110.275c0-0.724-0.586-1.311-1.31-1.311c-0.723,0-1.311,0.587-1.311,1.311
					c0,0.724,0.588,1.311,1.311,1.311C122.118-108.965,122.704-109.552,122.704-110.275z"/>
				<path fill="#E9DDB7" d="M186.938-162.187c0-0.869-0.705-1.572-1.574-1.572c-0.869,0-1.572,0.703-1.572,1.572
					c0,0.869,0.703,1.574,1.572,1.574C186.233-160.613,186.938-161.318,186.938-162.187z"/>
			</g>
			<g>
				<path fill="#A6D0E4" d="M85.033-134.517c-3.191-4.68,1.039-10.721-1.383-15.217c-2.422-4.498-6.744-5.016-9.857-2.596
					c-3.635,2.828-3.41,6.643-8.301,8.82c-5.529,2.465-17.984-2.248-19.715,7.264c-0.875,4.811,2.375,8.566,7.264,9.684
					c6.053,1.383,9.352,0.18,15.391,3.113c6.053,2.939,11.242,8.993,22.137,12.105c10.406,2.975,16.072-1.557,16.602-5.879
					C108.207-125.697,90.043-127.172,85.033-134.517z M82.785-127.08c0,1.24-1.006,2.248-2.248,2.248
					c-1.24,0-2.248-1.008-2.248-2.248c0-1.242,1.008-2.248,2.248-2.248C81.779-129.328,82.785-128.322,82.785-127.08z"/>
				<path fill="#E9DDB7" d="M112-173.697c0-17.166-14.5-25.5-27-22.832c-10.264,2.189-12.834,17.332-16.668,26.166
					c-3.713,8.557-8.832,22.5-20.166,22.5c-11.197,0-12.832-14.5-23.666-14.5c-11,0-24.5,15.666-24.5,39.666
					C0-108.03,9.799-91.242,20.834-92.03c11.666-0.833,4.5-19.667,15.332-19.667c9.5,0,7.857,16.259,9.168,23.334
					c1.666,9,6.832,14.166,18.498,13.166c14.443-1.237,22.334-13.5,18.871-23.344c-4.029-11.451-23.869-17.322-21.537-30.49
					c1.346-7.592,13-11.998,26-16.166C101.695-149.853,112-156.529,112-173.697z M67.049-97.854c0-1.815,1.471-3.286,3.285-3.286
					s3.287,1.471,3.287,3.286c0,1.815-1.473,3.286-3.287,3.286S67.049-96.039,67.049-97.854z M20.355-122.758
					c0,0.955-0.773,1.73-1.728,1.73s-1.731-0.775-1.731-1.73s0.775-1.729,1.731-1.729C19.582-124.486,20.355-123.713,20.355-122.758
					z M37.822-133.478c0,2.102-1.703,3.805-3.805,3.805c-2.1,0-3.805-1.703-3.805-3.805c0-2.102,1.705-3.805,3.805-3.805
					C36.119-137.283,37.822-135.58,37.822-133.478z M57.711-117.915c0,0.859-0.697,1.556-1.557,1.556
					c-0.859,0-1.557-0.696-1.557-1.556c0-0.859,0.697-1.556,1.557-1.556C57.014-119.471,57.711-118.773,57.711-117.915z
					 M87.354-172.609c0,1.752-1.42,3.174-3.174,3.174c-1.752,0-3.174-1.422-3.174-3.174c0-1.754,1.422-3.174,3.174-3.174
					C85.934-175.783,87.354-174.363,87.354-172.609z"/>
				<path fill="#E9DDB7" d="M109.219-153.463c0,8.41-5.078,15.227-11.34,15.227c-6.262,0-11.34-6.816-11.34-15.227
					c0-8.408,5.078-12.441,11.34-12.441C104.141-165.904,109.219-161.871,109.219-153.463z"/>
			</g>
		</g>
	</g>
</pattern>
<g id="Layer_2">
</g>
<g id="Layer_1_1_">
	<path fill="#836FEA" d="M9.009,25.534c15.258,19.802,50.052,46.472,107.111,63.272c57.059,16.799,111.115,24.861,168.175,29.197
		c57.06,4.335,34.435,57.471,85.088,78.547c91.095,37.902,216.225,20.577,259.271,11.365
		c43.043-9.213,107.111-46.074,162.167-27.648c55.058,18.426,160.168,14.628,171.179,9.75l0.024-182.638H0
		C0,7.379,5.668,21.197,9.009,25.534z"/>
	<path fill="#03284C" d="M9.009,17.734c15.258,19.802,50.052,46.471,107.111,63.271c57.059,16.801,111.115,24.862,168.175,29.198
		s34.435,57.471,85.088,78.547c91.095,37.903,216.225,20.577,259.271,11.364c43.043-9.212,107.111-46.074,162.167-27.647
		c55.058,18.426,160.168,14.627,171.179,9.75l0.024-182.638H0C0-0.421,5.668,13.396,9.009,17.734z"/>
	<pattern  id="SVGID_1_" xlink:href="#Alyssa" patternTransform="matrix(1 0 0 -1 -386.333 -16431.5039)">
	</pattern>
	<path opacity="0.2" fill="url(#SVGID_1_)" enable-background="new    " d="M9.009,17.734
		c15.258,19.802,50.052,46.471,107.111,63.271c57.059,16.801,111.115,24.862,168.175,29.198s34.435,57.471,85.088,78.547
		c91.095,37.903,216.225,20.577,259.271,11.364c43.043-9.212,107.111-46.074,162.167-27.647
		c55.058,18.426,160.168,14.627,171.179,9.75l0.024-182.638H0C0-0.421,5.668,13.396,9.009,17.734z"/>
	<g>
		<polygon fill="#FFFFFF" points="514.117,52.667 514.54,53.472 515.491,53.6 514.804,54.226 514.966,55.11 514.117,54.692 
			513.267,55.11 513.43,54.226 512.741,53.6 513.692,53.472 		"/>
		<polygon fill="#D4D6D8" points="514.117,53.111 514.386,53.622 514.991,53.705 514.554,54.103 514.657,54.666 514.117,54.4 
			513.575,54.666 513.68,54.103 513.241,53.705 513.847,53.622 		"/>
	</g>
	<g>
		<path fill="#FFFFFF" d="M363.799,169.202c1.679-0.773,6.011-1.139,6.011-1.139s-4.333-0.365-6.011-1.138
			c0.723-1.182,2.024-2.642,2.024-2.642s-1.563,1.214-2.828,1.89c-0.828-1.568-1.219-5.614-1.219-5.614s-0.391,4.047-1.219,5.614
			c-1.266-0.675-2.829-1.89-2.829-1.89s1.3,1.459,2.024,2.642c-1.678,0.773-6.01,1.138-6.01,1.138s4.333,0.365,6.01,1.139
			c-0.723,1.181-2.023,2.641-2.023,2.641s1.563-1.214,2.829-1.89c0.828,1.568,1.219,5.613,1.219,5.613s0.391-4.046,1.219-5.613
			c1.266,0.675,2.828,1.89,2.828,1.89S364.522,170.383,363.799,169.202z"/>
		<path fill="#EEE6D7" d="M362.967,168.734c0.99-0.456,3.542-0.671,3.542-0.671s-2.552-0.215-3.542-0.67
			c0.427-0.697,1.193-1.557,1.193-1.557s-0.921,0.715-1.667,1.114c-0.488-0.924-0.718-3.308-0.718-3.308s-0.23,2.384-0.718,3.308
			c-0.746-0.399-1.666-1.114-1.666-1.114s0.765,0.86,1.192,1.557c-0.99,0.455-3.542,0.67-3.542,0.67s2.551,0.215,3.542,0.671
			c-0.427,0.696-1.192,1.557-1.192,1.557s0.92-0.715,1.666-1.114c0.488,0.924,0.718,3.308,0.718,3.308s0.23-2.384,0.718-3.308
			c0.746,0.398,1.667,1.114,1.667,1.114S363.394,169.43,362.967,168.734z"/>
	</g>
	<g>
		<path fill="#FFFFFF" d="M701.997,248.881c1.679-0.774,6.011-1.139,6.011-1.139s-4.334-0.365-6.011-1.139
			c0.724-1.182,2.024-2.641,2.024-2.641s-1.563,1.214-2.829,1.89c-0.827-1.568-1.219-5.613-1.219-5.613s-0.391,4.046-1.219,5.613
			c-1.266-0.675-2.829-1.89-2.829-1.89s1.301,1.459,2.024,2.641c-1.679,0.774-6.011,1.139-6.011,1.139s4.334,0.365,6.011,1.139
			c-0.723,1.181-2.023,2.641-2.023,2.641s1.563-1.214,2.829-1.89c0.828,1.568,1.219,5.614,1.219,5.614s0.392-4.047,1.219-5.614
			c1.266,0.675,2.829,1.89,2.829,1.89S702.721,250.063,701.997,248.881z"/>
		<path fill="#EEE6D7" d="M701.165,248.413c0.99-0.455,3.541-0.67,3.541-0.67s-2.551-0.216-3.541-0.67
			c0.427-0.696,1.191-1.557,1.191-1.557s-0.92,0.715-1.665,1.114c-0.488-0.924-0.719-3.308-0.719-3.308s-0.23,2.384-0.718,3.308
			c-0.746-0.399-1.666-1.114-1.666-1.114s0.766,0.861,1.191,1.557c-0.988,0.455-3.541,0.67-3.541,0.67s2.553,0.215,3.541,0.67
			c-0.426,0.696-1.191,1.557-1.191,1.557s0.92-0.716,1.666-1.114c0.487,0.924,0.718,3.308,0.718,3.308s0.23-2.384,0.719-3.308
			c0.745,0.398,1.665,1.114,1.665,1.114S701.592,249.109,701.165,248.413z"/>
	</g>
	<g>
		<path fill="#FFFFFF" d="M730.435,126.517c1.679-0.773,6.01-1.139,6.01-1.139s-4.333-0.365-6.01-1.138
			c0.723-1.181,2.023-2.642,2.023-2.642s-1.563,1.214-2.828,1.891c-0.828-1.568-1.219-5.614-1.219-5.614s-0.392,4.047-1.219,5.614
			c-1.266-0.675-2.829-1.891-2.829-1.891s1.3,1.46,2.024,2.642c-1.679,0.773-6.011,1.138-6.011,1.138s4.334,0.365,6.011,1.139
			c-0.724,1.182-2.023,2.642-2.023,2.642s1.563-1.214,2.829-1.89c0.827,1.568,1.219,5.613,1.219,5.613s0.391-4.046,1.219-5.613
			c1.266,0.675,2.828,1.89,2.828,1.89S731.157,127.698,730.435,126.517z"/>
		<path fill="#EEE6D7" d="M729.602,126.049c0.99-0.455,3.542-0.671,3.542-0.671s-2.552-0.215-3.542-0.67
			c0.427-0.696,1.192-1.557,1.192-1.557s-0.92,0.716-1.666,1.114c-0.488-0.924-0.718-3.308-0.718-3.308s-0.23,2.384-0.719,3.308
			c-0.745-0.398-1.666-1.114-1.666-1.114s0.766,0.861,1.192,1.557c-0.989,0.456-3.542,0.67-3.542,0.67s2.553,0.216,3.542,0.671
			c-0.427,0.696-1.192,1.557-1.192,1.557s0.921-0.715,1.666-1.114c0.488,0.924,0.719,3.308,0.719,3.308s0.229-2.384,0.718-3.308
			c0.746,0.398,1.666,1.114,1.666,1.114S730.028,126.745,729.602,126.049z"/>
	</g>
	<g>
		<path fill="#FFFFFF" d="M30.68,13.638c1.679-0.773,6.01-1.138,6.01-1.138s-4.333-0.365-6.01-1.139
			c0.723-1.181,2.024-2.641,2.024-2.641s-1.563,1.214-2.828,1.89c-0.828-1.568-1.219-5.614-1.219-5.614s-0.391,4.047-1.219,5.614
			c-1.265-0.675-2.828-1.89-2.828-1.89s1.299,1.46,2.023,2.641c-1.679,0.773-6.01,1.139-6.01,1.139s4.333,0.365,6.01,1.138
			c-0.723,1.182-2.022,2.642-2.022,2.642s1.563-1.214,2.828-1.89c0.828,1.568,1.219,5.614,1.219,5.614s0.391-4.047,1.219-5.614
			c1.266,0.675,2.828,1.89,2.828,1.89S31.403,14.82,30.68,13.638z"/>
		<path fill="#EEE6D7" d="M29.848,13.17c0.989-0.455,3.542-0.67,3.542-0.67s-2.552-0.215-3.542-0.671
			c0.427-0.696,1.192-1.557,1.192-1.557s-0.921,0.716-1.666,1.114c-0.488-0.924-0.718-3.308-0.718-3.308s-0.23,2.384-0.718,3.308
			c-0.745-0.398-1.667-1.114-1.667-1.114s0.767,0.861,1.193,1.557c-0.99,0.456-3.542,0.671-3.542,0.671s2.553,0.215,3.542,0.67
			c-0.427,0.697-1.193,1.557-1.193,1.557s0.922-0.715,1.667-1.114c0.488,0.923,0.718,3.308,0.718,3.308s0.23-2.384,0.718-3.308
			c0.745,0.398,1.666,1.114,1.666,1.114S30.274,13.867,29.848,13.17z"/>
	</g>
	<g>
		<path fill="#FFFFFF" d="M169.818,8.895c1.678-0.773,6.01-1.138,6.01-1.138s-4.333-0.365-6.01-1.139
			c0.723-1.182,2.024-2.641,2.024-2.641s-1.563,1.214-2.829,1.89c-0.828-1.568-1.219-5.613-1.219-5.613s-0.391,4.046-1.219,5.613
			c-1.265-0.675-2.829-1.89-2.829-1.89s1.3,1.459,2.024,2.641c-1.679,0.773-6.01,1.139-6.01,1.139s4.333,0.365,6.01,1.138
			c-0.723,1.182-2.023,2.642-2.023,2.642s1.563-1.214,2.829-1.891c0.828,1.568,1.219,5.614,1.219,5.614s0.391-4.047,1.219-5.614
			c1.265,0.675,2.829,1.891,2.829,1.891S170.541,10.077,169.818,8.895z"/>
		<path fill="#EEE6D7" d="M168.986,8.427c0.989-0.456,3.542-0.67,3.542-0.67s-2.553-0.216-3.542-0.671
			c0.426-0.696,1.192-1.557,1.192-1.557s-0.921,0.715-1.667,1.114c-0.487-0.924-0.718-3.308-0.718-3.308s-0.231,2.384-0.718,3.308
			c-0.746-0.398-1.667-1.114-1.667-1.114s0.766,0.861,1.192,1.557c-0.989,0.455-3.542,0.671-3.542,0.671s2.552,0.215,3.542,0.67
			c-0.427,0.696-1.192,1.557-1.192,1.557s0.921-0.716,1.667-1.114c0.487,0.924,0.718,3.308,0.718,3.308s0.231-2.384,0.718-3.308
			c0.746,0.398,1.667,1.114,1.667,1.114S169.413,9.124,168.986,8.427z"/>
	</g>
	<g>
		<path fill="#FFFFFF" d="M250.898,62.05c1.018-0.468,3.646-0.691,3.646-0.691s-2.627-0.222-3.646-0.689
			c0.438-0.718,1.228-1.603,1.228-1.603s-0.948,0.736-1.716,1.147c-0.502-0.951-0.739-3.405-0.739-3.405s-0.237,2.454-0.739,3.405
			c-0.768-0.41-1.715-1.147-1.715-1.147s0.789,0.885,1.228,1.603c-1.017,0.468-3.646,0.689-3.646,0.689s2.628,0.223,3.646,0.691
			c-0.438,0.717-1.228,1.602-1.228,1.602s0.948-0.737,1.715-1.147c0.502,0.951,0.739,3.406,0.739,3.406s0.237-2.454,0.739-3.406
			c0.768,0.41,1.716,1.147,1.716,1.147S251.336,62.768,250.898,62.05z"/>
		<path fill="#EEE6D7" d="M250.394,61.767c0.6-0.276,2.147-0.407,2.147-0.407s-1.548-0.13-2.147-0.407
			c0.259-0.421,0.723-0.944,0.723-0.944s-0.559,0.434-1.011,0.675c-0.296-0.56-0.436-2.006-0.436-2.006s-0.141,1.446-0.436,2.006
			c-0.452-0.242-1.011-0.675-1.011-0.675s0.464,0.522,0.724,0.944c-0.601,0.276-2.148,0.407-2.148,0.407s1.547,0.131,2.148,0.407
			c-0.259,0.422-0.724,0.944-0.724,0.944s0.559-0.434,1.011-0.676c0.295,0.561,0.436,2.006,0.436,2.006s0.14-1.446,0.436-2.006
			c0.452,0.242,1.011,0.676,1.011,0.676S250.652,62.188,250.394,61.767z"/>
	</g>
	<g>
		<path fill="#FFFFFF" d="M469.066,0.27c1.017-0.469,3.646-0.69,3.646-0.69s-2.628-0.222-3.646-0.69
			c0.439-0.717,1.228-1.602,1.228-1.602s-0.947,0.737-1.715,1.146c-0.502-0.95-0.74-3.405-0.74-3.405s-0.237,2.454-0.739,3.405
			c-0.768-0.41-1.716-1.146-1.716-1.146s0.79,0.885,1.228,1.602c-1.018,0.468-3.646,0.69-3.646,0.69s2.627,0.222,3.646,0.69
			c-0.438,0.717-1.228,1.602-1.228,1.602s0.948-0.736,1.716-1.147c0.502,0.951,0.739,3.405,0.739,3.405s0.238-2.454,0.74-3.405
			c0.768,0.41,1.715,1.147,1.715,1.147S469.505,0.986,469.066,0.27z"/>
		<path fill="#EEE6D7" d="M468.561-0.014c0.601-0.276,2.148-0.407,2.148-0.407s-1.547-0.131-2.148-0.407
			c0.259-0.422,0.724-0.944,0.724-0.944s-0.56,0.434-1.011,0.675c-0.296-0.56-0.437-2.006-0.437-2.006s-0.14,1.446-0.436,2.006
			c-0.452-0.241-1.011-0.675-1.011-0.675s0.464,0.521,0.723,0.944c-0.6,0.276-2.147,0.407-2.147,0.407s1.547,0.131,2.147,0.407
			c-0.259,0.421-0.723,0.944-0.723,0.944s0.559-0.434,1.011-0.676c0.295,0.561,0.436,2.006,0.436,2.006s0.141-1.446,0.437-2.006
			c0.451,0.242,1.011,0.676,1.011,0.676S468.82,0.409,468.561-0.014z"/>
	</g>
	<g>
		<path fill="#FFFFFF" d="M444.032,228.013c1.679-0.773,6.011-1.139,6.011-1.139s-4.333-0.365-6.011-1.138
			c0.723-1.182,2.024-2.642,2.024-2.642s-1.563,1.214-2.829,1.891c-0.828-1.568-1.219-5.614-1.219-5.614s-0.391,4.047-1.219,5.614
			c-1.265-0.676-2.829-1.891-2.829-1.891s1.3,1.46,2.024,2.642c-1.678,0.773-6.01,1.138-6.01,1.138s4.333,0.365,6.01,1.139
			c-0.723,1.182-2.023,2.641-2.023,2.641s1.563-1.213,2.829-1.89c0.828,1.568,1.219,5.613,1.219,5.613s0.391-4.046,1.219-5.613
			c1.266,0.675,2.829,1.89,2.829,1.89S444.755,229.194,444.032,228.013z"/>
		<path fill="#EEE6D7" d="M443.2,227.545c0.99-0.455,3.542-0.671,3.542-0.671s-2.552-0.215-3.542-0.67
			c0.427-0.696,1.192-1.557,1.192-1.557s-0.921,0.716-1.667,1.114c-0.488-0.924-0.718-3.308-0.718-3.308s-0.23,2.384-0.718,3.308
			c-0.746-0.398-1.666-1.114-1.666-1.114s0.765,0.861,1.192,1.557c-0.99,0.455-3.542,0.67-3.542,0.67s2.552,0.216,3.542,0.671
			c-0.427,0.696-1.192,1.557-1.192,1.557s0.92-0.715,1.666-1.114c0.488,0.924,0.718,3.308,0.718,3.308s0.23-2.384,0.718-3.308
			c0.746,0.399,1.667,1.114,1.667,1.114S443.627,228.241,443.2,227.545z"/>
	</g>
	<g>
		<path fill="#FFFFFF" d="M679.646,33.747c3.356-1.546,12.021-2.277,12.021-2.277s-8.665-0.731-12.021-2.276
			c1.447-2.364,4.047-5.284,4.047-5.284s-3.126,2.428-5.657,3.78c-1.655-3.135-2.437-11.229-2.437-11.229s-0.784,8.094-2.438,11.229
			c-2.531-1.352-5.655-3.78-5.655-3.78s2.599,2.919,4.046,5.284c-3.356,1.546-12.022,2.276-12.022,2.276s8.665,0.731,12.022,2.277
			c-1.447,2.364-4.046,5.284-4.046,5.284s3.124-2.428,5.655-3.78c1.655,3.135,2.438,11.229,2.438,11.229s0.782-8.093,2.437-11.229
			c2.531,1.352,5.657,3.78,5.657,3.78S681.093,36.111,679.646,33.747z"/>
		<path fill="#EEE6D7" d="M677.982,32.812c1.978-0.911,7.083-1.341,7.083-1.341s-5.105-0.431-7.083-1.342
			c0.854-1.392,2.385-3.111,2.385-3.111s-1.841,1.431-3.331,2.227c-0.976-1.846-1.437-6.615-1.437-6.615s-0.461,4.769-1.437,6.615
			c-1.49-0.795-3.333-2.227-3.333-2.227s1.534,1.719,2.385,3.111c-1.977,0.911-7.083,1.342-7.083,1.342s5.105,0.431,7.083,1.341
			c-0.851,1.392-2.385,3.112-2.385,3.112s1.843-1.431,3.333-2.227c0.976,1.847,1.437,6.615,1.437,6.615s0.461-4.768,1.437-6.615
			c1.49,0.796,3.331,2.227,3.331,2.227S678.836,34.204,677.982,32.812z"/>
	</g>
	<g>
		<path fill="#FFFFFF" d="M933.556,13.638c1.679-0.773,6.011-1.138,6.011-1.138s-4.334-0.365-6.011-1.139
			c0.724-1.181,2.024-2.641,2.024-2.641s-1.563,1.214-2.829,1.89c-0.827-1.568-1.219-5.614-1.219-5.614s-0.391,4.047-1.219,5.614
			c-1.266-0.675-2.829-1.89-2.829-1.89s1.301,1.46,2.024,2.641c-1.679,0.773-6.011,1.139-6.011,1.139s4.334,0.365,6.011,1.138
			c-0.723,1.182-2.023,2.642-2.023,2.642s1.563-1.214,2.829-1.89c0.828,1.568,1.219,5.614,1.219,5.614s0.392-4.047,1.219-5.614
			c1.266,0.675,2.829,1.89,2.829,1.89S934.279,14.82,933.556,13.638z"/>
		<path fill="#EEE6D7" d="M932.724,13.17c0.99-0.455,3.541-0.67,3.541-0.67s-2.551-0.215-3.541-0.671
			c0.427-0.696,1.191-1.557,1.191-1.557s-0.92,0.716-1.666,1.114c-0.487-0.924-0.718-3.308-0.718-3.308s-0.23,2.384-0.718,3.308
			c-0.746-0.398-1.666-1.114-1.666-1.114s0.766,0.861,1.191,1.557c-0.988,0.456-3.541,0.671-3.541,0.671s2.553,0.215,3.541,0.67
			c-0.426,0.697-1.191,1.557-1.191,1.557s0.92-0.715,1.666-1.114c0.487,0.924,0.718,3.308,0.718,3.308s0.23-2.384,0.718-3.308
			c0.746,0.399,1.666,1.114,1.666,1.114S933.15,13.867,932.724,13.17z"/>
	</g>
	<g>
		<path fill="#FFFFFF" d="M592.585,267.045c1.019-0.469,3.646-0.691,3.646-0.691s-2.628-0.222-3.646-0.691
			c0.439-0.717,1.228-1.601,1.228-1.601s-0.946,0.737-1.715,1.147c-0.501-0.95-0.74-3.405-0.74-3.405s-0.236,2.454-0.738,3.405
			c-0.768-0.41-1.715-1.147-1.715-1.147s0.788,0.884,1.228,1.601c-1.019,0.469-3.646,0.691-3.646,0.691s2.627,0.223,3.646,0.691
			c-0.438,0.716-1.227,1.601-1.227,1.601s0.947-0.738,1.715-1.147c0.502,0.951,0.738,3.405,0.738,3.405s0.239-2.454,0.74-3.405
			c0.769,0.409,1.715,1.147,1.715,1.147S593.024,267.761,592.585,267.045z"/>
		<path fill="#EEE6D7" d="M592.081,266.76c0.601-0.275,2.148-0.406,2.148-0.406s-1.548-0.132-2.148-0.407
			c0.26-0.422,0.723-0.943,0.723-0.943s-0.559,0.434-1.01,0.676c-0.295-0.562-0.437-2.006-0.437-2.006s-0.14,1.445-0.435,2.006
			c-0.452-0.243-1.011-0.676-1.011-0.676s0.466,0.521,0.723,0.943c-0.6,0.275-2.147,0.407-2.147,0.407s1.548,0.131,2.147,0.406
			c-0.258,0.423-0.723,0.944-0.723,0.944s0.559-0.434,1.011-0.676c0.295,0.561,0.435,2.005,0.435,2.005s0.142-1.445,0.437-2.005
			c0.451,0.242,1.01,0.676,1.01,0.676S592.34,267.183,592.081,266.76z"/>
	</g>
	<g>
		<path fill="#FFFFFF" d="M802.013,90.239c1.018-0.469,3.647-0.691,3.647-0.691s-2.629-0.221-3.647-0.69
			c0.439-0.717,1.228-1.602,1.228-1.602s-0.946,0.737-1.715,1.146c-0.502-0.95-0.74-3.405-0.74-3.405s-0.236,2.454-0.738,3.405
			c-0.768-0.41-1.716-1.146-1.716-1.146s0.788,0.885,1.228,1.602c-1.018,0.469-3.646,0.69-3.646,0.69s2.627,0.222,3.646,0.691
			c-0.438,0.717-1.227,1.602-1.227,1.602s0.948-0.736,1.716-1.146c0.502,0.95,0.738,3.405,0.738,3.405s0.238-2.454,0.741-3.405
			c0.768,0.41,1.714,1.146,1.714,1.146S802.452,90.956,802.013,90.239z"/>
		<path fill="#EEE6D7" d="M801.509,89.956c0.601-0.276,2.148-0.408,2.148-0.408s-1.548-0.131-2.148-0.407
			c0.26-0.422,0.723-0.943,0.723-0.943s-0.558,0.433-1.01,0.675c-0.296-0.561-0.437-2.006-0.437-2.006s-0.139,1.445-0.436,2.006
			c-0.452-0.243-1.01-0.675-1.01-0.675s0.465,0.521,0.723,0.943c-0.601,0.276-2.147,0.407-2.147,0.407s1.547,0.132,2.147,0.408
			c-0.259,0.422-0.723,0.943-0.723,0.943s0.558-0.434,1.01-0.675c0.297,0.561,0.436,2.006,0.436,2.006s0.141-1.446,0.437-2.006
			c0.452,0.242,1.01,0.675,1.01,0.675S801.768,90.378,801.509,89.956z"/>
	</g>
	<g>
		<path fill="#FFFFFF" d="M899.024,289.669c1.68-0.773,6.011-1.138,6.011-1.138s-4.333-0.365-6.011-1.14
			c0.724-1.181,2.024-2.642,2.024-2.642s-1.563,1.215-2.828,1.891c-0.828-1.568-1.219-5.613-1.219-5.613s-0.391,4.047-1.22,5.613
			c-1.265-0.675-2.828-1.891-2.828-1.891s1.301,1.461,2.024,2.642c-1.68,0.774-6.01,1.14-6.01,1.14s4.332,0.364,6.01,1.138
			c-0.723,1.183-2.023,2.642-2.023,2.642s1.563-1.214,2.828-1.89c0.829,1.567,1.22,5.613,1.22,5.613s0.391-4.048,1.219-5.613
			c1.266,0.675,2.828,1.89,2.828,1.89S899.748,290.852,899.024,289.669z"/>
		<path fill="#EEE6D7" d="M898.193,289.201c0.989-0.454,3.541-0.67,3.541-0.67s-2.552-0.216-3.541-0.671
			c0.427-0.695,1.191-1.558,1.191-1.558s-0.92,0.716-1.666,1.114c-0.488-0.923-0.718-3.308-0.718-3.308s-0.23,2.385-0.718,3.308
			c-0.746-0.398-1.667-1.114-1.667-1.114s0.767,0.862,1.192,1.558c-0.988,0.455-3.542,0.671-3.542,0.671s2.554,0.216,3.542,0.67
			c-0.426,0.696-1.192,1.558-1.192,1.558s0.921-0.716,1.667-1.115c0.487,0.924,0.718,3.309,0.718,3.309s0.229-2.385,0.718-3.309
			c0.746,0.399,1.666,1.115,1.666,1.115S898.62,289.897,898.193,289.201z"/>
	</g>
	<g>
		<path fill="#FFFFFF" d="M500.906,325.714c1.68-0.772,6.01-1.138,6.01-1.138s-4.332-0.365-6.01-1.139
			c0.723-1.182,2.024-2.642,2.024-2.642s-1.563,1.215-2.828,1.891c-0.829-1.568-1.219-5.614-1.219-5.614s-0.392,4.048-1.22,5.614
			c-1.265-0.675-2.828-1.891-2.828-1.891s1.3,1.46,2.024,2.642c-1.679,0.773-6.011,1.139-6.011,1.139s4.333,0.365,6.011,1.138
			c-0.724,1.183-2.023,2.643-2.023,2.643s1.563-1.215,2.828-1.891c0.828,1.568,1.22,5.613,1.22,5.613s0.39-4.047,1.219-5.613
			c1.266,0.675,2.828,1.891,2.828,1.891S501.629,326.896,500.906,325.714z"/>
		<path fill="#EEE6D7" d="M500.074,325.246c0.989-0.454,3.542-0.67,3.542-0.67s-2.553-0.216-3.542-0.671
			c0.427-0.695,1.192-1.557,1.192-1.557s-0.92,0.716-1.667,1.113c-0.487-0.923-0.717-3.308-0.717-3.308s-0.23,2.385-0.719,3.308
			c-0.745-0.397-1.666-1.113-1.666-1.113s0.766,0.861,1.191,1.557c-0.989,0.455-3.541,0.671-3.541,0.671s2.552,0.216,3.541,0.67
			c-0.426,0.696-1.191,1.558-1.191,1.558s0.921-0.716,1.666-1.114c0.488,0.924,0.719,3.308,0.719,3.308s0.229-2.384,0.717-3.308
			c0.747,0.398,1.667,1.114,1.667,1.114S500.501,325.942,500.074,325.246z"/>
	</g>
	<g>
		<path fill="#FFFFFF" d="M481.61,112.288c1.679-0.773,6.01-1.138,6.01-1.138s-4.333-0.365-6.01-1.139
			c0.723-1.181,2.024-2.641,2.024-2.641s-1.563,1.214-2.829,1.89c-0.829-1.567-1.219-5.613-1.219-5.613s-0.391,4.046-1.219,5.613
			c-1.265-0.675-2.828-1.89-2.828-1.89s1.3,1.46,2.024,2.641c-1.678,0.774-6.011,1.139-6.011,1.139s4.334,0.365,6.011,1.138
			c-0.723,1.182-2.023,2.642-2.023,2.642s1.563-1.214,2.828-1.89c0.828,1.567,1.219,5.614,1.219,5.614s0.39-4.047,1.219-5.614
			c1.266,0.675,2.829,1.89,2.829,1.89S482.333,113.47,481.61,112.288z"/>
		<path fill="#EEE6D7" d="M480.777,111.82c0.99-0.455,3.542-0.67,3.542-0.67s-2.552-0.215-3.542-0.67
			c0.427-0.696,1.192-1.557,1.192-1.557s-0.92,0.716-1.666,1.114c-0.488-0.923-0.718-3.308-0.718-3.308s-0.23,2.384-0.719,3.308
			c-0.745-0.398-1.666-1.114-1.666-1.114s0.766,0.861,1.192,1.557c-0.99,0.455-3.542,0.67-3.542,0.67s2.552,0.215,3.542,0.67
			c-0.427,0.696-1.192,1.557-1.192,1.557s0.921-0.716,1.666-1.114c0.489,0.924,0.719,3.308,0.719,3.308s0.23-2.384,0.718-3.308
			c0.746,0.398,1.666,1.114,1.666,1.114S481.204,112.517,480.777,111.82z"/>
	</g>
	<g>
		<path fill="#FFFFFF" d="M859.416,241.292c1.68-0.773,6.011-1.138,6.011-1.138s-4.333-0.365-6.011-1.139
			c0.723-1.181,2.024-2.642,2.024-2.642s-1.563,1.214-2.828,1.89c-0.829-1.567-1.22-5.613-1.22-5.613s-0.391,4.047-1.219,5.613
			c-1.265-0.675-2.828-1.89-2.828-1.89s1.3,1.46,2.024,2.642c-1.68,0.773-6.011,1.139-6.011,1.139s4.333,0.365,6.011,1.138
			c-0.724,1.182-2.023,2.642-2.023,2.642s1.563-1.214,2.828-1.89c0.828,1.567,1.219,5.613,1.219,5.613s0.391-4.046,1.22-5.613
			c1.265,0.675,2.828,1.89,2.828,1.89S860.139,242.474,859.416,241.292z"/>
		<path fill="#EEE6D7" d="M858.585,240.825c0.988-0.456,3.541-0.67,3.541-0.67s-2.553-0.215-3.541-0.671
			c0.425-0.696,1.191-1.557,1.191-1.557s-0.921,0.716-1.667,1.114c-0.487-0.924-0.718-3.308-0.718-3.308s-0.229,2.384-0.717,3.308
			c-0.747-0.398-1.667-1.114-1.667-1.114s0.765,0.861,1.191,1.557c-0.988,0.456-3.541,0.671-3.541,0.671s2.553,0.215,3.541,0.67
			c-0.427,0.696-1.191,1.557-1.191,1.557s0.92-0.715,1.667-1.114c0.487,0.924,0.717,3.308,0.717,3.308s0.23-2.384,0.718-3.308
			c0.746,0.398,1.667,1.114,1.667,1.114S859.01,241.521,858.585,240.825z"/>
	</g>
	<g>
		<path fill="#FFFFFF" d="M948.79,191.019c1.679-0.773,6.011-1.139,6.011-1.139s-4.334-0.365-6.011-1.138
			c0.723-1.182,2.024-2.642,2.024-2.642s-1.563,1.214-2.829,1.89c-0.828-1.568-1.219-5.614-1.219-5.614s-0.391,4.047-1.219,5.614
			c-1.266-0.675-2.829-1.89-2.829-1.89s1.3,1.459,2.024,2.642c-1.679,0.773-6.011,1.138-6.011,1.138s4.334,0.365,6.011,1.139
			c-0.723,1.181-2.023,2.641-2.023,2.641s1.563-1.214,2.829-1.89c0.827,1.568,1.219,5.613,1.219,5.613s0.392-4.046,1.219-5.613
			c1.266,0.675,2.829,1.89,2.829,1.89S949.513,192.2,948.79,191.019z"/>
		<path fill="#EEE6D7" d="M947.958,190.551c0.989-0.456,3.541-0.671,3.541-0.671s-2.552-0.215-3.541-0.671
			c0.426-0.696,1.191-1.556,1.191-1.556s-0.92,0.715-1.666,1.114c-0.487-0.924-0.718-3.308-0.718-3.308s-0.23,2.384-0.718,3.308
			c-0.746-0.399-1.666-1.114-1.666-1.114s0.766,0.86,1.191,1.556c-0.988,0.456-3.541,0.671-3.541,0.671s2.553,0.215,3.541,0.671
			c-0.426,0.696-1.191,1.557-1.191,1.557s0.92-0.715,1.666-1.114c0.487,0.924,0.718,3.308,0.718,3.308s0.23-2.384,0.718-3.308
			c0.746,0.398,1.666,1.114,1.666,1.114S948.384,191.247,947.958,190.551z"/>
	</g>
	<g>
		<path fill="#FFFFFF" d="M917.306,125.568c1.679-0.773,6.011-1.139,6.011-1.139s-4.334-0.365-6.011-1.138
			c0.724-1.182,2.024-2.642,2.024-2.642s-1.563,1.214-2.828,1.89c-0.828-1.568-1.22-5.614-1.22-5.614s-0.39,4.047-1.219,5.614
			c-1.266-0.676-2.828-1.89-2.828-1.89s1.301,1.459,2.023,2.642c-1.679,0.773-6.01,1.138-6.01,1.138s4.333,0.365,6.01,1.139
			c-0.722,1.181-2.022,2.641-2.022,2.641s1.563-1.214,2.828-1.89c0.829,1.568,1.219,5.613,1.219,5.613s0.392-4.046,1.22-5.613
			c1.265,0.675,2.828,1.89,2.828,1.89S918.029,126.75,917.306,125.568z"/>
		<path fill="#EEE6D7" d="M916.474,125.101c0.99-0.456,3.542-0.671,3.542-0.671s-2.552-0.215-3.542-0.67
			c0.427-0.697,1.192-1.557,1.192-1.557s-0.921,0.715-1.666,1.114c-0.488-0.924-0.719-3.308-0.719-3.308s-0.229,2.384-0.718,3.308
			c-0.746-0.398-1.666-1.114-1.666-1.114s0.766,0.86,1.192,1.557c-0.989,0.455-3.542,0.67-3.542,0.67s2.553,0.215,3.542,0.671
			c-0.427,0.696-1.192,1.557-1.192,1.557s0.92-0.716,1.666-1.114c0.488,0.923,0.718,3.308,0.718,3.308s0.23-2.384,0.719-3.308
			c0.745,0.398,1.666,1.114,1.666,1.114S916.9,125.796,916.474,125.101z"/>
	</g>
	<g>
		<path fill="#FFFFFF" d="M794.417,8.895c1.679-0.773,6.011-1.138,6.011-1.138s-4.334-0.365-6.011-1.139
			c0.724-1.182,2.024-2.641,2.024-2.641s-1.563,1.214-2.828,1.89c-0.828-1.568-1.22-5.613-1.22-5.613s-0.39,4.046-1.219,5.613
			c-1.266-0.675-2.828-1.89-2.828-1.89s1.3,1.459,2.023,2.641c-1.679,0.773-6.01,1.139-6.01,1.139s4.333,0.365,6.01,1.138
			c-0.722,1.182-2.022,2.642-2.022,2.642s1.563-1.214,2.828-1.891c0.829,1.568,1.219,5.614,1.219,5.614s0.392-4.047,1.22-5.614
			c1.265,0.675,2.828,1.891,2.828,1.891S795.141,10.077,794.417,8.895z"/>
		<path fill="#EEE6D7" d="M793.585,8.427c0.99-0.456,3.542-0.67,3.542-0.67s-2.552-0.216-3.542-0.671
			c0.427-0.696,1.192-1.557,1.192-1.557s-0.921,0.715-1.666,1.114c-0.488-0.924-0.719-3.308-0.719-3.308s-0.229,2.384-0.718,3.308
			c-0.746-0.398-1.666-1.114-1.666-1.114s0.766,0.861,1.192,1.557c-0.989,0.455-3.542,0.671-3.542,0.671s2.553,0.215,3.542,0.67
			c-0.427,0.696-1.192,1.557-1.192,1.557s0.92-0.716,1.666-1.114c0.488,0.924,0.718,3.308,0.718,3.308s0.23-2.384,0.719-3.308
			c0.745,0.398,1.666,1.114,1.666,1.114S794.012,9.124,793.585,8.427z"/>
	</g>
	<g>
		<ellipse fill="#D71419" cx="541.382" cy="115.222" rx="32.347" ry="30.212"/>
		<path fill="#ED1C24" d="M548.374,85.718c-2.251-0.463-4.591-0.708-6.992-0.708c-17.865,0-32.347,13.526-32.347,30.211
			c0,16.686,14.481,30.212,32.347,30.212c4.829,0,9.407-0.996,13.523-2.768c-0.251-1.844-0.896-3.771-1.337-5.838
			c-1.251-5.874-15.234-6.197-22.343-5.248c-7.108,0.949-6.094-5.692-6.733-16.121c-0.64-10.428,16.89-0.237,16.382-10.128
			c-0.508-9.892,15.741,3.483,16.894-8.047l1.336-7.332C555.881,87.976,552.26,86.518,548.374,85.718z"/>
		<path fill="none" stroke="#385572" stroke-miterlimit="10" d="M509.035,115.222c0,0-9.506,0.853-9.506,9.08
			c0,8.226,74.352-18.017,78.415-23.393c4.062-5.375-6.938-4.421-6.938-4.421"/>
		<path fill="none" stroke="#8296A7" stroke-miterlimit="10" d="M509.035,117.119c0,0-9.506,0.853-9.506,9.08
			c0,8.226,74.352-18.017,78.415-23.393c4.062-5.375-6.938-4.421-6.938-4.421"/>
		<path fill="none" stroke="#385572" stroke-miterlimit="10" d="M509.035,119.016c0,0-9.506,0.853-9.506,9.08
			c0,8.226,74.352-18.017,78.415-23.392c4.062-5.376-6.938-4.422-6.938-4.422"/>
		<path fill="none" stroke="#385572" stroke-width="3" stroke-miterlimit="10" d="M509.035,121.862c0,0-9.506,0.853-9.506,9.08
			c0,8.226,74.352-18.018,78.415-23.393c4.062-5.375-6.938-4.421-6.938-4.421"/>
	</g>
	<pattern  id="SVGID_2_" xlink:href="#Alyssa" patternTransform="matrix(1 0 0 -1 -386.333 -16431.5039)">
	</pattern>
	<path opacity="0.2" fill="url(#SVGID_2_)" enable-background="new    " d="M2.848,17.734C18.106,37.536,52.9,64.205,109.959,81.005
		c57.059,16.801,111.115,24.862,168.175,29.198s34.435,57.471,85.088,78.547c91.095,37.903,216.225,20.577,259.271,11.364
		c43.043-9.212,107.111-46.074,162.167-27.647c55.058,18.426,160.168,14.627,171.179,9.75l0.024-182.638H-6.161
		C-6.161-0.421-0.493,13.396,2.848,17.734z"/>
	<g>
		<ellipse fill="#D71419" cx="534.599" cy="115.222" rx="23.179" ry="21.649"/>
		<path fill="#ED1C24" d="M539.609,94.08c-1.613-0.332-3.29-0.507-5.011-0.507c-12.802,0-23.179,9.692-23.179,21.648
			c0,11.957,10.377,21.649,23.179,21.649c3.46,0,6.741-0.713,9.69-1.983c-0.18-1.322-0.643-2.703-0.958-4.184
			c-0.896-4.209-10.916-4.441-16.01-3.76c-5.094,0.68-4.367-4.079-4.825-11.552c-0.458-7.472,12.103-0.17,11.738-7.257
			c-0.363-7.088,11.28,2.496,12.105-5.766l0.957-5.254C544.988,95.698,542.394,94.653,539.609,94.08z"/>
		<path fill="none" stroke="#385572" stroke-miterlimit="10" d="M511.42,115.222c0,0-6.812,0.611-6.812,6.506
			c0,5.895,53.278-12.91,56.189-16.762c2.91-3.852-4.972-3.168-4.972-3.168"/>
		<path fill="none" stroke="#8296A7" stroke-miterlimit="10" d="M511.42,116.581c0,0-6.812,0.611-6.812,6.506
			c0,5.895,53.278-12.91,56.189-16.762c2.91-3.852-4.972-3.168-4.972-3.168"/>
		<path fill="none" stroke="#385572" stroke-miterlimit="10" d="M511.42,117.941c0,0-6.812,0.611-6.812,6.506
			c0,5.895,53.278-12.91,56.189-16.762c2.91-3.853-4.972-3.169-4.972-3.169"/>
		<path fill="none" stroke="#385572" stroke-width="3" stroke-miterlimit="10" d="M511.42,119.98c0,0-6.812,0.611-6.812,6.506
			c0,5.894,53.278-12.911,56.189-16.763c2.91-3.852-4.972-3.168-4.972-3.168"/>
	</g>
	<g>
		<ellipse fill="#FFFFFF" cx="164.658" cy="66.888" rx="4.951" ry="4.625"/>
		<ellipse fill="#EEE6D7" cx="164.658" cy="66.888" rx="3.046" ry="2.846"/>
	</g>
	<g>
		<ellipse fill="#FFFFFF" cx="637.23" cy="145.423" rx="6.943" ry="6.486"/>
		<ellipse fill="#EEE6D7" cx="637.23" cy="145.423" rx="4.273" ry="3.991"/>
	</g>
	<g>
		<ellipse fill="#47C7E9" cx="364.822" cy="48.629" rx="37.901" ry="35.4"/>
		<path opacity="0.3" fill="#0071FA" enable-background="new    " d="M367.542,13.33c-8.068,2.566-16.447,5.72-16.48,7.754
			c-0.065,3.925,26.858-3.036,26.858,2.144s-13.097,1.547-13.097,7.441c0,5.895,24.141,3.282,23.349,6.966
			s-45.569,3.353-46.464,10.995c-0.896,7.641,28.724,2.431,30.649,5.376c1.926,2.945-10.937,5.156-12.146,7.109
			c-1.208,1.953,27.298-2.227,27.961,3.26c0.663,5.488-10.281,8.735-8.068,12.199c0.71,1.113,2.019,2.031,3.583,2.755
			c11.374-6.11,19.039-17.565,19.039-30.699C402.724,29.933,387.203,14.633,367.542,13.33z"/>
	</g>
	<g>
		<ellipse fill="#FFDC2D" cx="874.567" cy="45.699" rx="20.588" ry="19.229"/>
		<path fill="#EBC80F" d="M874.567,26.47c-4.483,0-8.62,1.353-12.001,3.625c1.883,1.892,4.672,2.941,8.813,1.672
			c11.786-3.612-4.791,6.415-4.791,6.415l13.175,2.445c0,0-6.289-0.94-5.183,5.067c1.105,6.007,9.217,1.984,9.217,1.984v8.77
			l6.835,1.258c2.824-3.292,4.522-7.462,4.522-12.008C895.155,35.079,885.938,26.47,874.567,26.47z"/>
		<path fill="none" stroke="#D71419" stroke-width="2" stroke-linecap="round" stroke-linejoin="round" stroke-miterlimit="10" d="
			M852.962,45.699c0,0-22.274,8.166-19.079,14.675c3.197,6.509,89.723-14.414,86.477-23.128c-2.031-5.454-25.854-0.084-25.854-0.084
			"/>
	</g>
	<g>
		<path fill="#EBC80F" d="M536.002,7.804c-0.171-0.133-0.041-0.543,0.293-0.914c0.333-0.371,0.743-0.562,0.914-0.429l31.206,23.178
			c1.734,1.359,2.569,3.099,1.862,3.885c-0.705,0.786-2.683,0.32-4.418-1.04L536.002,7.804z"/>
		<path fill="#FFDC2D" d="M568.415,29.638l-1.856-1.378l0,0c-0.192-0.144-1.794-0.074-2.872,0.731
			c-0.285,0.213-0.314,0.793-0.209,1.523l2.382,1.968c1.735,1.36,3.713,1.826,4.418,1.04
			C570.984,32.737,570.149,30.998,568.415,29.638z"/>
	</g>
	<g>
		<ellipse fill="#EBC80F" cx="433.259" cy="139.011" rx="4.951" ry="4.624"/>
		<ellipse fill="#FF5E23" cx="433.259" cy="139.011" rx="3.046" ry="2.846"/>
	</g>
	<g>
		<ellipse fill="#EBC80F" cx="106.701" cy="31.821" rx="4.951" ry="4.624"/>
		<ellipse fill="#FF5E23" cx="106.701" cy="31.82" rx="3.047" ry="2.846"/>
	</g>
</g>
<g id="Layer_3">
	<path fill="#FF5E23" d="M330.509,264.801l-10.163-31.926v-2.528h0.632l-0.632-1.896v-1.896c0,0,1.265-18.649,1.897-24.022
		c0.632-5.374,2.139-10.027,2.139-10.027s12.084-10.834,19.039-9.254c6.954,1.581,19.597,6.006,19.913,7.27l15.172-16.594
		l6.321-34.611h6.954c0,0-2.371,32.873-4.124,38.243c-0.059,0.182-0.728-0.174-0.766,0.016c-0.109,0.533,0.58,0.701,0.465,0.935
		c-0.122,0.249-0.791-0.246-1.083,0.235c-0.102,0.168,0.301,0.411,0.281,0.568c-0.938,7.415-20.377,29.225-20.377,29.225
		l-7.662,18.649h-22.998l-0.948-7.27l-1.264-1.581c0,0-3.758,12.249-2.845,14.54c0.913,2.291,4.425,18.966,4.425,18.966
		L330.509,264.801z"/>
	<ellipse fill="#D4D6D8" cx="346.898" cy="367.61" rx="47.203" ry="6.24"/>
	<ellipse fill="#BFC2C5" cx="345.001" cy="365.714" rx="47.202" ry="6.239"/>
	<circle fill="#FFDC2D" cx="350.691" cy="168.605" r="12.011"/>
	<circle fill="#EBC80F" cx="349.427" cy="167.34" r="12.011"/>
	<path fill="#FFDC2D" d="M386.785,133.669c-1.91,4.499-4.468,11.693-0.358,10c3.543-1.459,4.723-2.891,6.559-6.294
		c3.06-5.673,6.454-10.555,4.783-11.264C395.358,125.087,388.695,129.169,386.785,133.669z"/>
	<path fill="#EBC80F" d="M385.521,133.037c-1.91,4.499-4.802,10.087-0.358,10c7.503-0.148,4.649-1.794,6.559-6.294
		c1.909-4.499,7.193-10.24,4.782-11.264C394.094,124.455,387.431,128.537,385.521,133.037z"/>
	<path fill="#836FEA" d="M357.434,364.788c0.617,1.481,9.062,2.53,9.905,2.108c0.842-0.422,2.107-0.633,1.896-2.108
		c-0.21-1.474-2.95-5.688-2.739-10.113c0.21-4.425-9.061-2.107-9.061-2.107S356.381,362.26,357.434,364.788z"/>
	<path fill="#836FEA" d="M322.033,353.41c0,0-5.057,8.641-3.583,11.59c1.475,2.949,5.479,1.99,5.479,1.99s4.636-0.938,5.058-2.834
		s0-9.432,1.054-12.196C331.094,349.195,322.033,353.41,322.033,353.41z"/>
	<path fill="#03284C" d="M355.538,364.788c0.617,1.481,9.061,2.53,9.904,2.108c0.843-0.422,2.107-0.633,1.897-2.108
		c-0.21-1.474-2.951-5.688-2.74-10.113s-9.061-2.107-9.061-2.107S354.484,362.26,355.538,364.788z"/>
	<path fill="#03284C" d="M320.137,353.41c0,0-5.058,8.641-3.583,11.59c1.475,2.949,5.479,1.99,5.479,1.99s4.636-0.938,5.057-2.834
		c0.422-1.896,0-9.432,1.054-12.196C329.197,349.195,320.137,353.41,320.137,353.41z"/>
	<path fill="#D71419" d="M328.613,264.801l-10.163-31.926v-2.528h0.633l-0.633-1.896v-1.896c0,0,1.264-18.649,1.896-24.022
		s2.139-10.027,2.139-10.027s12.085-10.834,19.039-9.254s19.598,6.006,19.914,7.27l15.172-16.594l6.322-34.611h8.219
		c0,0-3.635,32.873-5.388,38.243c-0.06,0.182-0.728-0.174-0.767,0.016c-0.108,0.533,0.581,0.701,0.465,0.935
		c-0.122,0.249-0.792-0.246-1.083,0.235c-0.102,0.168,0.301,0.411,0.282,0.568c-0.938,7.415-20.377,29.225-20.377,29.225
		l-7.663,18.649h-22.998l-0.948-7.27l-1.265-1.581c0,0-3.757,12.249-2.845,14.54c0.913,2.291,4.425,18.966,4.425,18.966
		L328.613,264.801z"/>
	<path fill="#FFDC2D" d="M336.151,233.508v-6.321h22.125v6.321c0,0,11.379,21.494,13.592,35.401
		c2.212,13.909,9.482,85.976,9.482,85.976s-8.892,1.226-11.905,1.264c-3.613,0.048-14.33-1.264-14.33-1.264l-0.632-65.746
		c0,0-2.213-11.695-3.161-12.012c-0.948-0.314-6.954,27.816-6.638,29.713c0.316,1.896-1.264,49.309-1.264,49.309
		s-9.386,0.633-12.279,0.633s-12.692-1.264-12.692-1.264s7.771-84.998,9.483-91.666C329.645,257.185,336.151,239.83,336.151,233.508
		z"/>
	<path fill="#EBC80F" d="M334.255,233.508v-6.321h22.126v6.321c0,0,11.379,21.494,13.591,35.401
		c2.212,13.909,9.483,85.976,9.483,85.976s-8.892,1.226-11.906,1.264c-3.613,0.048-14.329-1.264-14.329-1.264l-0.632-65.746
		c0,0-2.212-11.695-3.161-12.012c-0.949-0.314-6.954,27.816-6.638,29.713c0.316,1.896-1.265,49.309-1.265,49.309
		s-9.386,0.633-12.279,0.633s-12.692-1.264-12.692-1.264s7.771-84.998,9.483-91.666C327.748,257.185,334.255,239.83,334.255,233.508
		z"/>
	<path fill="#836FEA" d="M318.24,166.498c-5.479,8.534-5.588,18.877-9.904,23.601c-3.866,4.231-15.594,10.5-13.065,23.266
		c2.529,12.767,14.972,22.313,26.129,22.46c14.119,0.187,31.82-5.268,33.927-22.547c0.721-5.91-9.972-16.926-3.371-26.551
		c5.057-7.376-4.425-16.858-4.425-16.858s11.764-6.016,10.906-7.563c-0.859-1.547-4.584-8.452-14.699-6.978
		C333.622,156.805,322.364,160.073,318.24,166.498z"/>
	<path fill="#03284C" d="M320.769,166.498c-5.479,8.534-5.588,18.877-9.904,23.601c-3.866,4.231-15.594,10.5-13.065,23.266
		c2.529,12.767,14.972,22.313,26.129,22.46c14.119,0.187,31.82-5.268,33.927-22.547c0.72-5.91-9.972-16.926-3.372-26.551
		c5.057-7.376-4.425-16.858-4.425-16.858s11.764-6.016,10.906-7.563c-0.859-1.547-4.584-8.452-14.699-6.978
		C336.151,156.805,324.893,160.073,320.769,166.498z"/>
	<pattern  id="SVGID_3_" xlink:href="#Alyssa" patternTransform="matrix(1 0 0 -1 -386.333 -16431.5039)">
	</pattern>
	<path opacity="0.2" fill="url(#SVGID_3_)" enable-background="new    " d="M320.769,166.498
		c-5.479,8.534-5.588,18.877-9.904,23.601c-3.866,4.231-15.594,10.5-13.065,23.266c2.529,12.767,14.972,22.313,26.129,22.46
		c14.119,0.187,31.82-5.268,33.927-22.547c0.72-5.91-9.972-16.926-3.372-26.551c5.057-7.376-4.425-16.858-4.425-16.858
		s11.764-6.016,10.906-7.563c-0.859-1.547-4.584-8.452-14.699-6.978C336.151,156.805,324.893,160.073,320.769,166.498z"/>
	<path fill="#03284C" d="M320.769,166.498c-5.479,8.534-5.588,18.877-9.904,23.601c-3.866,4.231-15.594,10.5-13.065,23.266
		c2.529,12.767,14.972,22.313,26.129,22.46c14.119,0.187,31.82-5.268,33.927-22.547c0.72-5.91-9.972-16.926-3.372-26.551
		c5.057-7.376-4.425-16.858-4.425-16.858s11.764-6.016,10.906-7.563c-0.859-1.547-4.584-8.452-14.699-6.978
		C336.151,156.805,324.893,160.073,320.769,166.498z"/>
</g>
<g id="Layer_4" display="none">
	<g display="inline">
		<path fill="#FFFFFF" d="M227.985,277.067c3.305-1.63,11.837-2.401,11.837-2.401s-8.532-0.771-11.837-2.4
			c1.425-2.492,3.985-5.57,3.985-5.57s-3.078,2.56-5.57,3.985c-1.63-3.305-2.4-11.837-2.4-11.837s-0.771,8.532-2.4,11.837
			c-2.492-1.425-5.57-3.985-5.57-3.985s2.56,3.078,3.985,5.57c-3.305,1.63-11.837,2.4-11.837,2.4s8.531,0.771,11.837,2.401
			c-1.425,2.492-3.985,5.57-3.985,5.57s3.078-2.56,5.57-3.985c1.63,3.305,2.4,11.837,2.4,11.837s0.771-8.532,2.4-11.837
			c2.492,1.425,5.57,3.985,5.57,3.985S229.41,279.559,227.985,277.067z"/>
		<path fill="#EEE6D7" d="M226.348,276.081c1.947-0.96,6.974-1.414,6.974-1.414s-5.027-0.454-6.974-1.414
			c0.839-1.468,2.348-3.281,2.348-3.281s-1.813,1.509-3.281,2.348c-0.96-1.947-1.414-6.974-1.414-6.974s-0.454,5.027-1.414,6.974
			c-1.468-0.839-3.281-2.348-3.281-2.348s1.509,1.813,2.348,3.281c-1.947,0.96-6.974,1.414-6.974,1.414s5.026,0.454,6.974,1.414
			c-0.839,1.468-2.348,3.281-2.348,3.281s1.813-1.509,3.281-2.348c0.96,1.947,1.414,6.974,1.414,6.974s0.454-5.027,1.414-6.974
			c1.468,0.839,3.281,2.348,3.281,2.348S227.187,277.549,226.348,276.081z"/>
	</g>
	<g display="inline">
		<path fill="#FFFFFF" d="M223.472,231.622c1.002-0.494,3.59-0.728,3.59-0.728s-2.587-0.234-3.59-0.728
			c0.432-0.756,1.209-1.689,1.209-1.689s-0.933,0.777-1.689,1.209c-0.494-1.002-0.728-3.59-0.728-3.59s-0.234,2.587-0.728,3.59
			c-0.756-0.432-1.689-1.209-1.689-1.209s0.777,0.933,1.209,1.689c-1.002,0.494-3.59,0.728-3.59,0.728s2.587,0.234,3.59,0.728
			c-0.432,0.756-1.209,1.689-1.209,1.689s0.933-0.777,1.689-1.209c0.494,1.002,0.728,3.59,0.728,3.59s0.234-2.587,0.728-3.59
			c0.756,0.432,1.689,1.209,1.689,1.209S223.904,232.378,223.472,231.622z"/>
		<path fill="#EEE6D7" d="M222.976,231.323c0.591-0.291,2.115-0.429,2.115-0.429s-1.524-0.138-2.115-0.429
			c0.255-0.445,0.712-0.995,0.712-0.995s-0.55,0.457-0.995,0.712c-0.291-0.591-0.429-2.115-0.429-2.115s-0.138,1.524-0.429,2.115
			c-0.445-0.255-0.995-0.712-0.995-0.712s0.457,0.55,0.712,0.995c-0.591,0.291-2.115,0.429-2.115,0.429s1.524,0.138,2.115,0.429
			c-0.255,0.445-0.712,0.995-0.712,0.995s0.55-0.458,0.995-0.712c0.291,0.591,0.429,2.115,0.429,2.115s0.138-1.524,0.429-2.115
			c0.445,0.255,0.995,0.712,0.995,0.712S223.23,231.769,222.976,231.323z"/>
	</g>
	<g display="inline">
		<path fill="#FFFFFF" d="M171.827,281.904c1.002-0.493,3.59-0.728,3.59-0.728s-2.587-0.233-3.59-0.728
			c0.432-0.756,1.209-1.689,1.209-1.689s-0.933,0.776-1.689,1.209c-0.494-1.002-0.728-3.59-0.728-3.59s-0.234,2.587-0.728,3.59
			c-0.756-0.432-1.689-1.209-1.689-1.209s0.777,0.933,1.209,1.689c-1.002,0.494-3.59,0.728-3.59,0.728s2.587,0.234,3.59,0.728
			c-0.432,0.757-1.209,1.689-1.209,1.689s0.933-0.777,1.689-1.209c0.494,1.002,0.728,3.59,0.728,3.59s0.234-2.586,0.728-3.59
			c0.756,0.432,1.689,1.209,1.689,1.209S172.259,282.661,171.827,281.904z"/>
		<path fill="#EEE6D7" d="M171.33,281.605c0.591-0.291,2.115-0.429,2.115-0.429s-1.524-0.138-2.115-0.429
			c0.255-0.445,0.712-0.995,0.712-0.995s-0.55,0.458-0.995,0.712c-0.291-0.591-0.429-2.115-0.429-2.115s-0.138,1.524-0.429,2.115
			c-0.445-0.255-0.995-0.712-0.995-0.712s0.457,0.55,0.712,0.995c-0.591,0.291-2.115,0.429-2.115,0.429s1.524,0.138,2.115,0.429
			c-0.255,0.445-0.712,0.996-0.712,0.996s0.55-0.457,0.995-0.713c0.291,0.592,0.429,2.115,0.429,2.115s0.138-1.523,0.429-2.115
			c0.445,0.256,0.995,0.713,0.995,0.713S171.585,282.051,171.33,281.605z"/>
	</g>
</g>
</svg>
